<svg id="图层_1_图像" data-name="图层 1 图像" xmlns="http://www.w3.org/2000/svg" viewBox="0 0 498.68 588.13"><defs><style>.cls-1{fill:#1894da;fill-rule:evenodd;}</style></defs><g id="横向"><path class="cls-1" d="M481,0h.32c1.72.24,3.64.28,4.93,1,3.07,6.88-5.76,9.11-6.72,14.7,1.27.53,2.59,1.76,4.1,1.47.77-.14,1.54-1.47,2.2-2.1C488,13,491,11,493,9.35a16.19,16.19,0,0,1,5.67,2.1v.21c-1.1,8.21-8.07,10.56-9.77,18.17.62.46,1.47.18,1.89,1a13.42,13.42,0,0,1,.63,3.89c-.2.78-1.41,1.75-2.1,2.41-1.95,1.89-4.37,3.35-6,5.26-.27.32-.84.8-.63,1.26,2.29-.15,5.2-1.25,7.36-.21.3,1.19.87,2.59.31,3.88-.33.77-1.8,1.43-2.41,2.1-.89,1-1.52,1.85-2.42,2.11s-1.61-.07-2.1.1c.2,4.54,1.73,12.67.63,17.23a3,3,0,0,1-2.84,2.31c-1,0-1.15-.33-1.78-.84-2.1-1.69-6-1.75-7.36-4,1.22-2,5.15-1.23,7.36-2.21-.25-3.64-.3-7.47-.53-11.13-2.54.7-4.63,3-6.93,4.72-2.06,1.5-5.75,3.4-8.72,1.26-.27-2.51,1.57-2.47,3.36-3,1.49-.48,3-1,4.1-1.47,2.85-1.24,7.17-3.59,7.35-7.15.06-1.2-.42-1.84-.21-2.73.29-1.2,1.76-2.3,2.84-3.25A14.36,14.36,0,0,0,483.66,38a2.92,2.92,0,0,0,.52-2.1c-1.05-.06-1.71.91-2.41,1.47a17.06,17.06,0,0,1-4.94,2.83c-.91.32-2.15.77-3.15.22-.53-1.07.11-1.71.84-2.32s1.42-1.2,2-1.68a32.68,32.68,0,0,1,4.1-3.25c1.3-.75,3-1.07,4.2-1.89,1-.7,1.69-2.66,2.31-3.89,1.88-3.73,3.71-7.34,4.42-12-1.37-.12-2.15.89-2.94,1.47a14.27,14.27,0,0,0-2.53,2c.26,1.43,1.54,2.41,1.58,3.78a7.77,7.77,0,0,1-1,2.84c-1.3,2.48-3.66,5.25-6,5.78-.61-1.32,1.1-2.48.84-3.79-1.32.24-1.89,1.52-2.73,2.53-.39.46-.86,1-1.26,1.47s-.91,1.1-1.89.84c-1.17-1.69,1.51-3.36.94-5.05-1.33-.34-1.74.83-2.2,1.47-1.09,1.52-2,2.7-3.15,4.31-.49.7-.88,2.09-2.1,1.68-.42-.14-.64-1-.85-1.47-.81-2.09-1.7-2.75-2.94-4.62-.56-.86-1.56-2.79-1.26-3.78s2.53-1.53,3.68-.74c.49.33.72,1.64,1.15,2.31s1.1,1.47,1.79,1.37c.12-1.43-.65-2.59-1.15-3.68-1.57-3.36-3.69-6.24-3.89-10.5,1.63.22,3.13.41,4.1,1.26.73.65.72,1.8,1.47,2.52,5.24-1.73,7.71-5.82,8.93-11.45.41-1.9.25-3.93.94-5.88Zm-9.56,20.28c.48.08.73.38,1.26.41.29-.33.67-.59.74-1.15A12.73,12.73,0,0,0,472,19C471.79,19.4,471.65,19.86,471.47,20.28Zm4.1.63c.05,1.28,2.41,2,3.36.63C478.61,20.28,475.49,18.89,475.57,20.91ZM482,25.74c1.84.19,2.26-3.61.42-3.78C482.34,23.3,482.08,24.44,482,25.74Zm-8.62,0a2,2,0,0,0,1.26-.42c0-.4-.33-.51-.42-.84h-1.05A3,3,0,0,0,473.36,25.74Z"/><path class="cls-1" d="M208.11,5.78c1.38,4.5,2.24,9.52,4.51,13.13,1.9.24,3.46.82,5.36,1.05a14.68,14.68,0,0,1-.42,2.21,36.28,36.28,0,0,0-12.92,10.92c-1.48,2-2.92,4-2.52,7.14,4.87-2.36,8.17-7.69,12.29-11.66.75-.72,3.2-3.35,4.41-3.46s2.51,1.24,3.26,2a14,14,0,0,1,2.31,2.73c-.63,3-1.53,6-2.31,9a17.83,17.83,0,0,0-.74,2.94,84.63,84.63,0,0,0,.21,8.61c.12,3,.11,6,.21,8.62a6.43,6.43,0,0,1,.11,1.57c-.2,1-1.81,2.13-2.52,3a13,13,0,0,1-2.84,2.62c-1.86-2-4.9-7.48-8.4-4,.23,1,1.65.8,2.1,1.58,0,.88-.81,1.09-1.26,1.68-1.37,1.77-1.89,4.33-4.1,5.25-1.1-1.46-1.93-3.18-2.94-4.73a8.71,8.71,0,0,1-3.57-.52,19.76,19.76,0,0,0,.42-2.31c2.22-.48,4.51-2,3.15-4.84-1,0-1.81-.22-2.84-.21.07-2.17.34-4.71-1.89-4.62-1.18.05-3,2-3.67,2.63-1.27,1.16-3.08,2.79-3,5.25,0,3.19,3.72,4.1,4,6.62.19,1.74-1,2.73-1.16,3.89h-2.94c-4.51-2.9-8.14-11.49-5.35-18.18.51,0,.74.31,1.26.32.34.71.24,2.46,1.26,2.73s2.4-1.66,3.15-2.42a22.29,22.29,0,0,0,6-10.5,15.43,15.43,0,0,0,2.41-.74,4.62,4.62,0,0,0-1.26-2.42A12.91,12.91,0,0,1,193,39.39c-.8-.35-2.34-.93-2.31-1.68s3-2.23,3.89-2.83c1.51-1,2.77-1.86,3.88-2.73,2.32-1.81,5-3.8,5.36-8,.06-.71.1-1.52.11-2.31,0-5.13-1.55-10.91.1-16.07C205.28,5.09,206.69,5.39,208.11,5.78Zm6.41,26.58a47.64,47.64,0,0,0-3.37,4.2c.36,1.48,1.46,2.06,1.58,3.57.14,1.86-1.64,3.46-2.63,4.94s-1.77,3-2.52,3.88c1,1.34.86,3.47.42,5.36h2c.2.64.67,1,.84,1.68-.22.76-.65,1.31-.84,2.1a10.59,10.59,0,0,0,5.25.32c1.18-7.7,1.77-17.48.53-25.53C215.39,32.67,214.93,32.54,214.52,32.36ZM203.17,52c1.7-2.3,3.71-6.27,2.63-10,0-.08-.09-.12-.21-.1C204,44.33,201.53,48.27,203.17,52Z"/><path class="cls-1" d="M378.4,8.82c-.1,6.47-3.45,10.2-2.95,16.92,1.65-.61,3.86-1.87,5.89-.84.65,1.49,2.36,2.45,2.1,4.51-2.23-.05-4.7-.57-7-.52-5.44.12-9.2,2.6-11.14,6.3.15.31.49.43.63.74a17.23,17.23,0,0,0,2.53-1.68c.79-.59,1.59-1.56,2.31-1.79a4.26,4.26,0,0,1,3.57.84c.1,2.8-1.95,3.44-2.84,5.25a4.27,4.27,0,0,1-.94,5.05c.55,1.47,1.34,3.27.63,4.93-.54,1.27-2.27,2.12-2.84,3.16.14,3.67,2,10.19-.42,12.6a20.84,20.84,0,0,1-5.67-3.36c-4.06,2-6.2,5.85-7.88,10.19a22.71,22.71,0,0,1-2.42-.21c-.33-.79-.83-1.41-1.15-2.21,1.6-7.92,12.57-6.48,13.55-15-1.22.77-5.6,3.54-5.67-.42,1.15-1.19,3-1.73,4.09-2.94V46.64c-1,.1-1.45,1.25-2.52.63-.26-.45.1-1.05.11-1.57,3.37-1.56,7.67-4.07,9.35-7.57a4.81,4.81,0,0,0,.42-2.52c-.72.52-1.54.73-2.31,1.26-2,1.39-2.9,4.14-6.52,3.58,0-1.35-.21-2.6-.21-4-2.86,1.06-6.84,5.4-11.13,4.63-1.81-.33-2.55-2.15-2.73-4.42.89-.07,1.34-.71,2.1-.84,1.87-.3,3.7.27,5.35.11,4.35-.43,7.64-3.19,11.14-4.62a7.06,7.06,0,0,1-1.89-4.84c-1.32.64-2.07,1.85-3.78,2.1a12.43,12.43,0,0,1-1.89-1.26,16.75,16.75,0,0,1,.31-3.67c.79.21,1.06.64,1.89.63,4.13-.05,2.93-6.49,3.47-10.4,1.8-.39,2.35.53,3.15,1.47.41.47,1.18,1.22,1.26,1.68.36,2.12-2.86,4.41-1.36,6.83,2.1-.35,1.66-3.24,1.68-5.68,1.5-.35,1.62.7,2.52.95,1.54-3.22,1.44-8.08,3.78-10.51C376.26,8.51,377.13,8.86,378.4,8.82Zm-8,18.07c-.55-.21-1.19-.34-1.78-.52-.11,1-.72,2.25-.32,3,1-.56,2.78-1.2,4-1.89.5-4,3-9,1.68-13.34,0-.08-.08-.12-.21-.1C372.27,18,372.67,23.76,370.41,26.89Zm-5.15,17.55a1.26,1.26,0,0,0,.32.84c.59-.78,1.7-1,1.89-2.21C366.49,43.28,366.13,44.11,365.26,44.44Zm-2.1,14.7c.22.21.22.62.63.63a11.63,11.63,0,0,1,1.26-.42c.09-.43-.16-.54-.1-.94C364.25,57.76,363.57,58.6,363.16,59.14Z"/><path class="cls-1" d="M427.88,35.72A19.38,19.38,0,0,0,433.55,32c.56-.58,1.35-2.54,2-2.73s1.76.62,2.32.94,1.44.78,1.57,1.58c.27,1.72-1.3,1.94-2.63,2.52A72.79,72.79,0,0,0,427.14,40c-.52,5.72-1.9,10.38-5,13.66a32.43,32.43,0,0,1-5.26,4.1c-1.75,1.19-3.77,3.24-6.3,2.52-.2-.36.26-.64.42-.84,1.61-2.05,3.68-3.94,5.57-6,2.11-2.28,4.54-5,5.25-8a5,5,0,0,0-.42-3.57c-2.95,1.4-5.85,3.45-9,5.25-3.87,2.19-9.57,5.15-14.39,2.62a3.45,3.45,0,0,1,.94-3,71.79,71.79,0,0,0,24.06-9.14,45.64,45.64,0,0,0,.73-10.19c0-3.43-.14-7.13-1.05-9.88-.75-2.28-2.46-3.81-2.83-5.77.28.06.49-.48.63-.21,4.51,1.46,8.85,3.37,8.93,8.82C429.41,25.33,427.26,30.14,427.88,35.72Z"/><path class="cls-1" d="M268,14.71c.64,1.28,1.5,3.3.73,5-4.63.32-7.66-.95-9.14-3.78a16.68,16.68,0,0,0,.63-1.68C262.57,13.93,266.15,13.87,268,14.71Z"/><path class="cls-1" d="M247,32.46c.15-.54.65-.75.84-1.26,5.38-.67,10-2.9,14.18-5.15a70.36,70.36,0,0,0,12.08-7.88c1.14,0,3.59,0,3.47,1.68-.07.91-2.11,1.82-2.73,2.21-6.35,3.93-13,6.23-18.6,11-.67.57-2,2.19-2.52,2.31-1,.23-2.93-.66-3.78-1A14.73,14.73,0,0,1,247,32.46Z"/><path class="cls-1" d="M322.09,48.32v2.42c-3.61,1.48-7.26,3.8-11.14,6s-7.9,4.44-12.39,4.73a7.09,7.09,0,0,1-5.36-1.69c-.69-.65-1.94-2.23-1.58-2.94s3.79-.76,5.26-1c5.47-1.06,8.95-3.3,11.76-6.93,2-2.53,3.48-5,5.25-7.25s4-4.11,4.73-7.67c-4.24-1.5-8.52,2.88-12.5,1.37-1.29-.49-1.9-1.68-2.73-2.84a25.23,25.23,0,0,1,.73-2.63c4.85,1.07,11.21,1,15.13-.63,1.5-.62,3.37.77,4.2,1.58.47.45,1.16,1,1.26,1.47.28,1.36-1.2,4.2-1.68,5.15-2,4-4.67,6.05-6.82,10.19-.34.65-1.19,1.76-.74,2.2.61.62,2.54-1,3-1.26A3.43,3.43,0,0,1,322.09,48.32Z"/><path class="cls-1" d="M269.88,30.25c2.24.25,4.14.84,5.36,2.11-.12,2.76-3.26,3.37-4.73,5a3.42,3.42,0,0,0-.95,1.89c.12.83,1.26.74,1.37,1.79-1.65,1.39-4.2,1.89-5.67,3.46,1.4,6.05,1.84,15.61-.74,20.7h-1.89C261.44,62,260,59,257.27,57.36c-3,1.58-4.24,5-5.57,8.3-1.47.33-3.48,1-5,.31-.56-2.33-2.28-5.27-.94-7.88a91.75,91.75,0,0,0,8.71-3.25c.76-.31,2.23-1.19,2.84-1.16,1.45.07,2.47,2.92,4.1,3,1.13-3.15-.84-6.89.63-9.56.49-.89,2.12-1.36,2.31-2.21.29-1.26-.56-2.62-.42-3.67.16-1.26,1.36-2.47,2.21-3.37s2.44-1.72,1.57-3.15c-2.11.68-2.72,3.84-5.57,4a3.59,3.59,0,0,1-2.31-.73,5.23,5.23,0,0,1,.42-1.79A21.44,21.44,0,0,0,269.88,30.25Z"/><path class="cls-1" d="M256,38c2.31-.48,4.83,2.29,5.15,4.62.43,3.17-2.11,5.72-4.62,3.47a9.56,9.56,0,0,1-1.89-2.94c-.28-.63-1.27-2.8-1.06-3.68C253.76,38.85,255.15,38.21,256,38Z"/><path class="cls-1" d="M270.09,47.69a7.3,7.3,0,0,1,1.26.21c2.49,1,5.41,8.13,3.57,11.66a3.6,3.6,0,0,1-5.15,1.37c-.42-3.89-.8-9.26.11-12.92C270,47.92,269.94,47.72,270.09,47.69Z"/><path class="cls-1" d="M442.69,60.51c-.71,2.29-4.46,3.47-5.89,1.05-.22-2,.3-3.86,0-6-.25-1.88-2.09-4.09-.94-5C439.68,52.31,442.23,55.37,442.69,60.51Z"/><path class="cls-1" d="M372,54.31c.47-.16,1.12-.7,1.47-.63a7.68,7.68,0,0,1,4,1.47c1,.77,2.29,2.58,2.1,3.78-.1.67-1.8,2.73-2.63,2.42-.37-.14-1-1.47-1.36-1.89-.87-.92-3.79-2.4-4-3.57C371.48,55.39,372,54.8,372,54.31Z"/><path class="cls-1" d="M220.82,89.29c1.94,4.71,4.31,10.34,6.51,15.55.86,2,1.41,5.43,4.52,5.15v1.89h-9.56V110a3.13,3.13,0,0,0,2.1-.42c-.14-1.93-1.11-3-1.58-4.62h-7.14a23.89,23.89,0,0,0-1.78,4.41c.41.6,1.41.62,2.41.63v1.89h-7.88v-1.79c2.8.09,3.44-3.26,4.31-5.35,2.07-5,4.66-10.55,6.62-15.13,0-.15,0-.3.1-.32Zm-4.1,13.14a48.72,48.72,0,0,0,5-.11c-.91-1.86-1.58-3.94-2.52-5.78C218.39,98.49,217.5,100.41,216.72,102.43Z"/><path class="cls-1" d="M331.75,90.66a2.27,2.27,0,0,0,.21-1.37h1.79c.27,2.57.5,5.18.63,7.88H332.7a6.63,6.63,0,0,0-5.88-5.46c-4.75-.27-8,3.76-7.57,10,.28,3.86,2.39,8,6.93,8.3a9.52,9.52,0,0,0,4-.84c-.17-2.56.4-5.87-.42-7.78a6.34,6.34,0,0,0-2.31-.21v-2h9.35v2a7.6,7.6,0,0,0-1.9.11c-.89,2.26-.2,6.1-.42,9-2.26,1-3.78,1.82-6.3,2-7.21.52-13.19-3.08-13.76-9.87s3.92-12.79,10.92-13.14A14.74,14.74,0,0,1,331.75,90.66Z"/><path class="cls-1" d="M416.11,90.76c.58-.18.48-1.05.84-1.47h1.58c.13,2.85.39,5.57.52,8.41h-1.68c-.58-1.75-1.08-3.58-2.52-4.73a6.73,6.73,0,0,0-7.67,0c-2.41,1.85-3.1,5.87-2.84,9.56.3,4.11,2.66,6.93,6.52,7.14,3.48.2,5.6-1.76,7.25-4.51a9.06,9.06,0,0,1,1.57.94c-1.62,3.17-4,5.85-8.09,6.2a11.07,11.07,0,0,1-8-2c-5.64-4.49-5-13.68-.63-18C405.84,89.55,412,88.11,416.11,90.76Z"/><path class="cls-1" d="M200.54,104c-.12-3.93.27-8.39-.21-12-.57-.44-1.73-.3-2.73-.32V89.82h8.62v1.89c-.66.16-1.87-.29-2.53.21s-.42,3.49-.42,4.83V112.2c-1.81.4-2.11-.78-3-1.9-3.67-4.42-7.58-9.29-11.24-13.44.1,4.2-.23,8.84.21,12.71a4.6,4.6,0,0,0,2.73.42v1.89h-8.51V110c3.09.59,2.94-1.19,2.94-4.2v-8.2a21.08,21.08,0,0,0,0-4c-.38-1.4-2.45-2-4.1-1.89.07-.6-.13-1.47.11-1.89h6.41C192.84,94.41,196.51,99.38,200.54,104Z"/><path class="cls-1" d="M251.7,104c-.14-4,.33-8.52-.31-12-.54-.45-1.67-.3-2.63-.32V89.82h8.51v1.89c-.65.17-1.88-.3-2.52.21s-.42,3.49-.42,4.83V112.2c-1.8.41-2.13-.79-3.05-1.9-3.68-4.42-7.53-9.23-11.13-13.44.06,4.17-.14,8.61.1,12.6.49.64,1.71.54,2.84.53a6.31,6.31,0,0,1-.11,1.89h-8.51V110c.74,0,2,.12,2.53-.32,1-.87.42-5.74.42-7.87V97.7a23.2,23.2,0,0,0,0-4.1c-.36-1.44-2.45-2-4.1-1.89.07-.6-.14-1.47.1-1.89,2,.49,4.42-.64,6.41,0,.62.2,2.58,2.89,3,3.47C245.81,96.86,248.77,100.89,251.7,104Z"/><path class="cls-1" d="M272.61,89.82v1.89c-3.43-.95-2.94,1.9-2.94,4.62,0,4.57.72,10.46-1.16,13.34-.78,1.21-3.41,3.67-6.62,2.42a3.46,3.46,0,0,1-1.89-2,2.25,2.25,0,0,1,2.21-3c1.93,0,1.59,1.5,2.73,2.83.73-1.11.42-2.71.42-4.2,0-4.3.09-9.26-.1-13.44-.47-.65-1.72-.53-2.84-.53.07-.6-.14-1.47.1-1.89Z"/><path class="cls-1" d="M285.43,89.82v1.89a6.13,6.13,0,0,0-2.42.21c-1.26.8-.63,6.62-.63,8.51a69.27,69.27,0,0,0,.21,8.93c.41.74,1.67.64,2.84.63v1.89h-10.3V110c.59,0,2.16.14,2.63-.32s.42-2.67.42-4.09v-9c0-3.06.44-5.58-3.05-4.83.07-.6-.14-1.47.11-1.89Z"/><path class="cls-1" d="M305.6,104c-.13-3.93.26-8.39-.22-12-.57-.44-1.73-.3-2.73-.32V89.82h8.62v1.89c-.66.16-1.88-.29-2.52.21-.79.61-.42,3.49-.42,4.83V112.2c-1.82.4-2.12-.78-3.05-1.9-3.68-4.41-7.55-9.31-11.24-13.44.1,4.17-.22,8.76.21,12.6.46.63,1.63.54,2.73.53v1.89h-8.51V110c.63-.06,1.91.15,2.42-.21,1.05-.75.52-5.77.52-7.88V97.7a21.42,21.42,0,0,0,0-4.1c-.37-1.42-2.44-2-4.09-1.89.06-.6-.14-1.47.1-1.89h6.41C297.9,94.4,301.57,99.37,305.6,104Z"/><path class="cls-1" d="M373.67,89.82c.16,2,.19,4.15.31,6.2h-1.89c.21-3.22-2.08-4-5.46-3.57.19,5.65-.39,12.08.32,17.22.56.42,1.65.31,2.62.32v1.89H359.49V110c.76-.11,2.1.27,2.62-.42s.32-2.75.32-4.1V92.55c-3.14-.61-5.71.25-5.36,3.47h-1.89a57.55,57.55,0,0,1,.42-6.2Z"/><path class="cls-1" d="M394.26,89.82c.07,2,.14,4,.31,5.88h-1.89c-.41-1.22-.17-2.39-1.05-3-1.53-1.14-4.95,0-7.35-.42-.25,2.06,0,4.58-.11,6.82,2.87.14,7.28.91,6.52-2.94h1.89v8.51h-1.79c-.15-.75-.31-1.51-.42-2.31-1.05-1.26-4.07-.55-6.2-.74.07,2.53-.13,5.32.11,7.67,2.31-.08,4.79.53,6.72,0s2.43-2.47,3.36-3.88h1.89c-.64,2.25-1.44,4.37-2.2,6.51H376.92V110c1.16,0,2.28,0,2.84-.53.18-5.53.17-11.79,0-17.33-.51-.58-1.77-.4-2.84-.42.07-.6-.13-1.47.11-1.89Z"/><path class="cls-1" d="M432.92,89.82v1.89c-4.62-1.36-2.44,4.56-2.94,7.67h8.3c-.09-2.36.2-5.11-.21-7.14-.45-.64-1.64-.54-2.74-.53a6.69,6.69,0,0,1-.1-1.89h10.29v1.89c-1.12,0-2.36-.12-2.83.53a141.72,141.72,0,0,0,0,17.12c.41.74,1.67.64,2.83.63v1.89H435.33a3.57,3.57,0,0,1,0-1.89c4.69,1.36,2.38-5.21,2.95-8.09H430c.06,2.45-.14,5.18.1,7.46.43.73,1.67.64,2.84.63v1.89H422.73V110c.67-.07,1.89.16,2.41-.21.84-.6.53-2.81.53-4.1,0-4.41.16-10.08-.21-13.55a4.44,4.44,0,0,0-2.73-.42c.07-.6-.14-1.47.1-1.89Z"/><path class="cls-1" d="M345.94,124.91c.57,0,.33-.86.63-1.16h1.68v8.51h-1.79c-.19-3.18-1.9-6.36-5.57-6a2.75,2.75,0,0,0-2.62,2.52c0,1.81,2.77,3,4.51,4,3,1.65,7.4,3.32,6.83,8.41-.34,3.05-3.2,5.37-6.62,5.57-2.24.12-3.88-.68-6.09-1.16-.4.13-.17.88-.42,1.16h-1.79v-8.41h1.79c.51,1.64.48,3.29,1.79,4.52,1.87,1.75,7.25,2.17,7.35-1.26a3.53,3.53,0,0,0-.84-2c-2.43-2.71-8.29-3.61-9.88-7.56-1.76-4.4,2-8.81,7.25-8.3A16.91,16.91,0,0,1,345.94,124.91Z"/><path class="cls-1" d="M182.89,124.17h10.19a6.31,6.31,0,0,1,.11,1.89c-1.05.12-1.92-.19-2.52.21-1,.66-.53,4.64-.53,5.88,0,3.5-.48,7.73.74,10,1.67,3.11,8.13,2.29,9.24-.74,1-2.83.53-7.51.53-11.35,0-2.79.29-4.53-3.05-4v-1.89h8.72v1.89c-1.27-.08-2.35,0-2.84.74-1,5.66,1.13,12.89-1.47,16.7s-10.64,4.58-14.07,1.05c-2.66-2.73-2.1-8-2.1-13.45,0-3.11.62-5.82-3.05-5C182.86,125.47,182.65,124.59,182.89,124.17Z"/><path class="cls-1" d="M228.49,138.46v-6.31c0-3.05.87-7-2.94-6.09v-1.89h8.51v1.89c-.65.14-1.79-.24-2.42.21-.85.62-.53,3.36-.53,4.73v15.65c-1.65.36-2.07-.72-2.94-1.78-3.67-4.54-7.62-9.36-11.24-13.66.13,4.21-.26,8.95.21,12.82.56.45,1.75.28,2.73.31v1.89h-8.61v-1.89c.55-.09,1.76.16,2.31-.1,1.18-.57.63-5.82.63-7.88v-4.21a21.63,21.63,0,0,0,0-4.2c-.39-1.41-2.49-2-4.1-1.89.07-.59-.13-1.47.11-1.89h6.41C220.72,128.78,224.4,133.82,228.49,138.46Z"/><path class="cls-1" d="M249.39,124.17c.23.44.05,1.28.11,1.89-.69.11-2-.19-2.52.21-.83.6-.53,2.82-.53,4.1,0,4.41-.16,10.08.21,13.55.55.51,1.66.44,2.73.42.23.44.05,1.28.11,1.89H239.2v-1.89c.6-.1,1.73.17,2.31-.1,1-.47.63-2.7.63-4,0-4.45.09-10.17-.1-13.55-.46-.69-1.66-.65-2.84-.63.07-.59-.14-1.47.11-1.89Z"/><path class="cls-1" d="M264.2,124.17v1.89c-.86,0-1.78,0-2.2.53.23,2.37,1.49,4.41,2.42,6.51s1.78,4.29,2.73,6.41a100.1,100.1,0,0,0,5-12.71c-.37-.65-1.43-.6-2.21-.84v-1.79h7.78V126c-2.53,0-3.4,3-4.21,5-2.12,5.2-4.4,11-6.4,15.76h-1.47c-2.37-5.44-5.09-11.89-7.67-17.86-.72-1.66-1.26-3-3.58-2.84v-1.89Z"/><path class="cls-1" d="M299.92,124.17c.17,1.9.22,3.91.32,5.88h-1.89c-.29-1.26-.2-2.28-1-2.94-1.43-1.24-5,.06-7.35-.42-.25,2,0,4.52-.11,6.73,3.1.15,7.17.93,6.52-2.95h1.78v8.62h-1.78a9.21,9.21,0,0,0-.42-2.31c-.88-1.51-4-.56-6.1-.84v7.67c2.21.13,5,.63,6.94,0,1.75-.59,2.36-2.45,3.15-3.89h2c-.69,2.21-1.48,4.33-2.2,6.51H282.69v-1.89c.68-.1,2,.2,2.53-.21.77-.6.42-3,.42-4.2,0-4.4.23-10.27-.32-13.55a5.69,5.69,0,0,0-2.63-.32c.07-.59-.13-1.47.11-1.89Z"/><path class="cls-1" d="M319.88,135.83a36.63,36.63,0,0,0,2.94,4.2c1.53,2.11,2.57,4.36,6.1,4.42v1.78h-6.41c-2-2.41-3.85-5-5.78-7.67-.55-.76-1-2.29-2.42-2,.35,2.7-1.85,9.13,2.84,7.77v1.89H307v-1.89c.79-.12,2.19.32,2.73-.42s.21-3,.21-4.31c0-4.21.16-9.8-.21-13.13a4.6,4.6,0,0,0-2.73-.42c.07-.59-.14-1.47.11-1.89,7.74,0,17.38-1.26,17.43,6C324.53,133.38,322.48,135,319.88,135.83Zm-.21-4.62c.58-3.21-2.23-5.31-5.46-4.31v7.36C316.85,134.42,319.28,133.35,319.67,131.21Z"/><path class="cls-1" d="M366.21,124.17c.07.32,0,1.25,0,1.89-.73.09-2-.19-2.52.32-.73.66-.42,2.9-.42,4.2,0,4.36-.16,9.94.21,13.34.54.51,1.66.44,2.73.42.07.32,0,1.25,0,1.89H356v-1.89c.61-.1,1.73.18,2.31-.1,1-.47.63-2.72.63-4,0-4.4.08-9.91-.1-13.55-.49-.67-1.66-.65-2.84-.63.07-.59-.14-1.47.1-1.89Z"/><path class="cls-1" d="M390.37,124.17c.11,2.06.19,4.15.32,6.2H388.8c.13-3.11-2-3.91-5.36-3.57-.19,3.53-.11,8.8-.11,13.34,0,1.17-.29,3.43.42,4s1.85.08,2.53.21v1.89h-10.2v-1.89c.63-.1,1.72.18,2.32-.1,1-.47.63-2.65.63-3.89V126.9c-3.06-.57-5.58.31-5.26,3.47h-1.89a54.77,54.77,0,0,1,.42-6.2Z"/><path class="cls-1" d="M405.81,124.17v1.89a3.66,3.66,0,0,0-2.31.42c1,3.09,3.07,5.06,4.52,7.67.85-1.16,1.64-2.43,2.42-3.68s1.93-2.37,1.78-4c-.34-.46-1.21-.39-2-.42a6.69,6.69,0,0,1,.1-1.89h8.51v1.89c-3.55.12-4.59,3.13-6.2,5.68-1.19,1.87-2.3,3.75-3.25,5.25.1,2.31-.24,5.06.21,7,.53.44,1.66.29,2.62.31.23.44,0,1.28.11,1.89H402.14v-1.89c3,.49,2.94-.81,2.94-3.47a19.94,19.94,0,0,0,0-3.46c-.18-.8-1.29-2-1.89-2.94s-1.23-1.84-1.89-2.84c-1.65-2.48-2.44-5.4-5.68-5.57v-1.89Z"/><path class="cls-1" d="M0,5.57c45.88.07,92-.14,137.72.1V93.08c0,9.75.58,20-1.78,27.41-4.53,14.25-15.69,23.79-27.42,30.89-12.22,7.39-25.88,13.09-39.61,18.7h-.1c-22.32-9.61-46.36-18.18-60.2-36.56A40.56,40.56,0,0,1,0,109.88ZM7.46,13c.07,2.55-.14,5.39.1,7.77A5.34,5.34,0,0,1,12,17.33c4.1-.45,5.7,2.64,6.19,6.2a12.33,12.33,0,0,1,4.94-5.88c-1.83-.38-.76-3.66-2-4.62Zm19.43,2.2c1.34.1,2.74-.24,4.21-.1,3.72.34,5.58,3.17,7.45,5.35-.27,1.37-.47,2.81-1.68,2.95-1.86.21-4.46-3.88-5.88-.74.72,1.41,3,2.9,4.62,1.79-.21,1.41-.36,3-1.47,3.25-2.16.55-3.47-2.56-4.94-2.62-1.21-.05-2.29,1.59-1.15,2.52,2.94.07,4.91,1.11,6,3.05a44.63,44.63,0,0,0,6.09-4.21c1.11-1.06,2.12-2,1.16-3.67.54-.37.67-1.15.94-1.79.62,0,.7.64,1,1,.47,0,.93,0,1,.32.37.63-.24,1.48,0,2,1-.06.9-1.12,1.78-1.26.66-.15.55.62,1.05.32.46,0,1.24-.62,1.58-.11-.37.83-1.14,1.24-1.26,2.31-.65.26-1.63.19-1.68,1.05a8.08,8.08,0,0,1,1.89.11c0,1.12,1.35,1,1.47,2a2.42,2.42,0,0,0-2.1.95c-1.53-.83-2.25-.24-3.26.42a13.08,13.08,0,0,0-4,4.31c2.56.38,4.18,1.7,6.62,2.2.59-.39.77-1.19,1.36-1.57.45-.1.75.27,1.05,0,.53-4.58,1.41-9.42.95-14.5-.23-2.54-1.21-5.17-1.37-7.56-8.93.07-18.14-.14-26.89.1A11.63,11.63,0,0,0,26.89,15.23Zm26-1.89c.21,2.11.39,4.24.74,6.2H84.15c.46-2,.52-4.38.84-6.51H53C52.82,13,52.83,13.19,52.84,13.34ZM89.5,13a.48.48,0,0,1-.1.31C87.9,19.48,87.49,27.67,89,34c1.84-.9,2.91.76,3.57,2,.52-.82.19-1.71.11-2.52,2.73-.34,2.68,2.19,2.31,4.41,1.32.92,3.67.4,4-.84.4-1.54-1-2.51-1.79-3.57a15.79,15.79,0,0,1-1.68-2.62c.31,2.38-2.14,2.46-3.78,1.78.35-.49.78-.9,1.16-1.36-.56-.94.72-1.59.73-2.53,0-.71-.62-1-.52-1.89-.8-.88-2.53-.84-2.84-2.2-.43-.31-1.37-.11-1.68-.53.5-.76.9-1.51,1.78-1.57,1.32-.1,2.18,1.41,3,1.57-1-1.24-.41-2.7-1.15-4.1,2.36-.5,3,1.4,3.57,3.05,0-.61.68-.44.84-.84s.09-1.17.42-1.47c3.23,1.49-.29,4.44.21,6.3.68,2.55,3.23,4.51,5.57,5.68.61-.56,2.2-1.22,2.1-1.79a7.47,7.47,0,0,1-2,.11c1.67-.86,2.61-3.05,0-3.47-1.1-.9-1.46-2.53-1.68-4.31a3.52,3.52,0,0,1-1.26-.1,5,5,0,0,1-1.37-2.94c1.17-1.07,3.08-1.41,4.73-2,.24-.37-.5-.51-.31-1.16a12,12,0,0,1,9.14-2.83c3.46.23,8.3,2.79,8.4-1.26Zm30.15,5.25c-1.74,0-3.85-1.72-5.56-1a8,8,0,0,1,5.46,4.94c.56-3,1.88-5.48,5-5.46,2.87,0,4.65,2.05,5.67,4.31V13c-3,.07-6.23-.14-9,.1C123.52,14.66,122.86,18.36,119.65,18.28Zm6,7.35c.18-1.73,1.51-5,.11-5.88-1.81-1.16-3,2.1-3,3.47C122.46,27,124,30,125.33,33.09c1.06,2.55,2.87,5.59,3,8.2.35,5.09-3.86,7-7,8.71a6.4,6.4,0,0,1,.63,2.32c1.63-.83,2.62-2.84,5.26-2.32.07,2.35-.14,5,.1,7.15A7.79,7.79,0,0,1,128.9,57a4.71,4.71,0,0,1,.73,2.94c-1.28-.2-2.23-.73-3.46-.63-2.45.21-3.59,2.31-4.73,3.89-.14.15-.46.1-.74.11-.19.47-.19,1.14-.63,1.36-.7-.63-1.89-1.31-1.78-2.31s1.95-1.24,1.68-2.1c-2.09-.23-2.92,1.78-4.73,1.16-.36.29-.66,1.12-1.26.84-.38-1.48,0-3.09,1.16-3.37-.54-.54-.83.72-1.68.53.08-1.43-.08-2.84.84-3.26,1.53-.7,4.2,1.35,6.19.53-4.56-1-8.46-2.67-10.5-6.2-2.85.79-4.92,3.25-3.89,7.25,1.14.54,3.31,1,2.31,3-1.68,0-2.55-.6-3.78-.52-1.76.11-2.54,1.8-3.89,2.31-.36.14-.72,0-1,.11C99,63,98.78,64,97.91,63.87c-.36-.78-1-1.51-1-2.31.14-1.29,1.76-1,2.52-1.89-2.35-.45-4.37,1.23-5.88,0a3.24,3.24,0,0,1-1.57,1c0-1.3-.25-3.17.84-3.68,1.27-.59,3.1.66,4.62-.1-1.52.25-2.43-.7-3.26-.84-.58-.1-1.36.25-2,.1.88-4.61,5.94-1.56,9.13-1.05a35.83,35.83,0,0,1-.94-4.83c-.32-4.82,2-7.3,4.1-9.56.19-.21.63-.49.52-.84-2.1.56-3.24,2.08-4.94,3A7.88,7.88,0,0,0,95.7,41.6c0,1,1.21,1.76,1,2.94s-1.94,1.37-3.36,1.16c-.06-.69.47-.78.52-1.37-.75-.31-.3-1.25-.42-1.78a3.38,3.38,0,0,0-1.26-1.9c-.69-.31-1.69.13-2.42-.1s-.47-.82-1.15-.95c-.66.8-1.2,1.7-1.89,2.53a17.87,17.87,0,0,0-2,2.2c2.59-.34,1.66,2.13,1.37,4-.56,3.52-1.22,7.47-1.68,10.3,1.39.14,3.44-.36,4.2.42.42,5,.21,11.13.1,16.28-6.9-1.72-14.85-.09-19.85,2.31a31,31,0,0,0-19.75-2.31c.07-5.36-.14-11,.1-16.18.68-.9,2.76-.39,4.21-.52-.57-4.66-1.77-9.23-2-13.87a3.64,3.64,0,0,1,1.79-.42c-.62-1-2.26-1.88-2.84-3.25-1.37.46-1.86-.69-3.26-.53.77,1,.25,2.15-.21,3.26-.92-.7-2-1.23-1.89-3-2.41-.6-7-1.28-8.82,0-.7-.35-1.41-.69-2.1-1-.1.46.46.72.73,1a10.81,10.81,0,0,1,2.31,4.31c.66,3.26-1.84,6.7-.42,10,1.36.05,2.29.91,3.89.84,1,0,2-.82,2.84-.73a2.4,2.4,0,0,1,2,2.83c-.67.18-1.1-.63-1.47-.1-.29.82,1.35,1.35,1.68,2.41a2,2,0,0,1-.1,1.69c-.68-.1-.82-.73-1.47-.84-.64.9-2.24,0-2.94.1.83.76.06,2.45-.64,2.94-1.9-2.68-5.64-3.53-8.29-5.46-.06-4-2.12-6.43-4.21-8.3-.24-.22-.51-.66-.84-.53-1.16,3.39-3,5.68-6.09,7-1.12.5-2.47.81-3.05,1.89,1.71.51,4,.4,5.36,1.26.29.84,1.47,2.21.53,3.26a6.92,6.92,0,0,0-2.94-.84c-.13.65.48,1.57-.21,2.1-.58,0-.9-.71-1.48-.84-.27-.06-.73.14-1,.11-2.09-.2-4.11-1.94-6-1.68-1.08.14-1.77,1.29-2.84.31,0-.72.5-.87.73-1.47,1-2.58-.43-6.87-.21-9.24.3-3.09,3.68-.46,5.57-.32.23-1.24.82-2.13,1-3.36C13,47.24,10,45,10,41.29c0-2.41,2.09-5.42,3-7.67a26.39,26.39,0,0,0,2.41-8.3c.13-1.83-.13-3.64-1-4.31-.75-.54-2.49-.56-2.94.11-1.17,1.72,1,3.14.63,4.83-.43,2-4.23,2.44-4.62-.21v43c9.35,1.51,18.75,3,28.05,4.52.07,2.31-.14,4.9.1,7,7.82-.32,13.15-4,21.43-3.57a31.49,31.49,0,0,1,9.14,2,11.38,11.38,0,0,0,2.84.95,12.83,12.83,0,0,0,2.63-1,30.45,30.45,0,0,1,9.13-1.89c8.6-.38,13.42,3.25,21.33,3.57.24-2.14,0-4.73.11-7,9.4-1.41,18.59-3,28-4.41-.07-14.25.14-28.79-.1-42.86-.4,1.33-1.39,2.65-1.37,4.41a12.31,12.31,0,0,0,1.05,3.57C127.26,32.22,125.21,30,125.64,25.63Zm-24.16-2.31c2.26,2.87,3.61-2.33,6.09-2.41C105.7,18.92,103.09,22.69,101.48,23.32Zm10.4,6.51C113,29.69,114.7,27.29,115,26c1.12-4.5-5.71-3.13-7.14-1.05-.84,1.22-.64,3.08-.84,4.83C108.38,28.46,110.65,30,111.88,29.83ZM64.4,27c.33,1.1,2.54,1,4,1.05.1.32-.23,1.06.21,1.05.74.49.86-.54.94-1.05,2.69.5,5.18-1.34,2.95-3.15,0,.19-.36.06-.42.21-.35.59.37.93.21,1.68a4.56,4.56,0,0,1-2.84.31,6.26,6.26,0,0,0-.11-1.78,1.18,1.18,0,0,0-.94,0v1.89c-1.16,0-2.34,0-2.94-.53-.07-.7.54-1,.31-1.57C64.76,24.49,64.16,26.22,64.4,27ZM75,36.77c-.47-1.79.56-4.87-.21-6.62a3.1,3.1,0,0,0-3.57-1.26c-.62.17-.84.82-1.37,1.05-1.74.74-2.23-.59-3.26-1s-2.81-.18-3.46.84c-1,1.54-.11,3.94-.42,7.15-.22.66-1.22.54-1.26,1.36C62.65,39,63.54,38,63.77,37c.59-2.65-1.39-8.08,2.2-7.25.46.11.64.67,1.16.95s1.29,0,1.26.73c-.85.49-3.17-.51-3.36.63.34,1,2.71-.05,3.36.63V33c-.85.48-3.17-.51-3.36.63.71.83,3.34-.27,3.78.84.54,0,.43-.55.94-.53.92-.24,2.86.55,3-.52-.45-.82-2.65.12-3.26-.53v-.31c.83-.47,3.07.47,3.26-.63-.29-1-2.65,0-3.26-.63,0-.72.7-.32,1.26-.63s.62-.84,1-.95a2.57,2.57,0,0,1,2,.52c.71,2.83-1,8.58,2.41,8.41C76.45,37.48,75.24,37.66,75,36.77Zm42.54-1.89c-.58,1.25-2.62,3.79-2.41,5.35.1.81,1.13,1.31,1.68,1.9s1,1.68,1.68,1.89c2.37.71,4.8-2.16,4.52-4.73-.16-1.38-1.41-3.16-2-4.83-.67-1.91-1-4.24-1.47-5.57A31.89,31.89,0,0,1,117.55,34.88ZM16,35.61c-.72,1.77-2.41,4-2.1,5.68.35,1.92,2.73,2.39,4.51,3.15a14.05,14.05,0,0,0,1.89-2c.64-.63,1.69-1.29,1.79-2.21.17-1.46-1.47-3.61-2.21-5.25a52.15,52.15,0,0,1-2.1-5.57A26.42,26.42,0,0,1,16,35.61Zm53.36-.84c-1.81,0-4.36-.46-4.3.74.74.44,2.28.1,3.36.21-.07.39.13,1-.11,1.26-1.13.3-3.61-.74-3.46.84,1.81.17,4.54.12,6.51.1.6,0,1.62.27,1.68-.52-.48-.85-2.43-.24-3.57-.42.07-.39-.14-1,.1-1.26,1-.23,3,.52,3.16-.53C72.28,34.49,70.76,34.77,69.33,34.77ZM89,37.4c.88-.14,1.47.56,2,.42a3,3,0,0,1-1.57-2.1h-.32C89.17,36.39,88.93,36.75,89,37.4Zm-41,.73a1.57,1.57,0,0,0,.94.21C49.16,37.21,48.14,37.28,48,38.13ZM61.77,46c-.29,4.23-.65,8.38-1,12.61H66c-.47-4.26-.78-8.67-1.26-12.92C63.8,45.87,62.17,45.33,61.77,46Zm11.45-.31c-.8,4-.94,8.59-1.36,12.92h5c-.23-4.39-.65-8.59-1-12.92ZM61,64.4v.94c.54,0,.92-.69,1.27-.52v3.46c.35,0,.85.08,1.05-.1v-5C62,62.93,62.1,64.28,61,64.4Zm6,4c1.93-.36,2-4.87.11-5.25-3.29-.69-2.09,4.93.21,3.25,0,.64-.19,1.08-.74,1.16-.33,0-.43-.34-.52-.63a2.16,2.16,0,0,1-1,.1C65.56,68.63,66.33,68.52,67,68.39Zm3-.32c3,2.39,4.14-5.69.63-4.83C69,63.66,69.17,67.34,70.07,68.07Zm6-4.93a1.76,1.76,0,0,0-2.31,1.57,3.81,3.81,0,0,1,1,.11.67.67,0,0,1,1.26-.42c.41,1.28-2.76,2.52-2.42,3.88h3.47v-.94H75.22C76.34,66.82,78.33,63.65,76.06,63.14ZM7.46,72.7c.4,12.84-.53,25.55,0,37.6.49,11.2,6.27,19.06,12.71,25,12.09,11.16,28.61,18.6,45.38,25.31,1.09.44,2.68,1.38,3.36,1.37s2.19-.93,3.26-1.37c16.85-6.87,33.48-14.12,45.49-25.31,6.1-5.69,12.34-13.94,12.6-25.11.3-12.17-.21-24.7,0-37.71-8.16,1.25-16.25,2.58-24.37,3.88v5.68c.89.3,2.48-.1,3.36.21-.07,11.31.14,22.9-.1,34-2-.05-4.78.12-6.3-.1C95.25,124.1,84.5,129,73.54,133.73c-1.34.58-3.55,2-4.73,2a10.57,10.57,0,0,1-2.31-.95c-5.54-2.34-11.1-4.85-16.08-7.46a68.12,68.12,0,0,1-12.18-7.88c-1.09-.92-2.5-3-3.47-3.25-1.76-.41-4.81.62-6.3,0v-34h3.36V76.27Q19.61,74.41,7.56,72.38C7.44,72.4,7.45,72.55,7.46,72.7Zm79,6.09c-6.76-1-12.66.71-17.65,2.84-4.17-1.74-8.66-3.42-14.29-3.16-7.51.36-13,4.24-20.8,3.37V111c6.22.85,11.75-1,17.65-1.79a37.08,37.08,0,0,1,13.66.42c1.18.29,2.75,1.16,3.88,1.16s2.63-.87,3.79-1.16a31.66,31.66,0,0,1,4.3-.73c9.78-1,17.71,3,27,2.2V81.84C97.44,82.74,92.23,79.67,86.46,78.79ZM30.25,84.25c.07,9.42-.14,19.12.11,28.36h1.47c.25-9.34,0-19.15.11-28.67H30.36C30.24,84,30.25,84.1,30.25,84.25Zm75.54,0c.07,9.42-.14,19.12.1,28.36h1.58V83.94h-1.58C105.77,84,105.78,84.1,105.79,84.25Zm-37,28.58c-6.79-3.47-18.28-2.28-25.74-.22H63.56a8.3,8.3,0,0,0,.1,1.69H74.17c.06-.53-.14-1.33.1-1.69H94.65C87.14,110.48,75.7,109.45,68.81,112.83Zm-28.47,3.46c6.58,5.53,15.84,10.08,24.58,13.87,1.08.47,3.12,1.58,4,1.58s2.78-1.09,3.89-1.58c1.38-.61,2.72-1.31,3.78-1.79,7.2-3.23,14.74-6.73,20.28-11.45.13-.11.5-.37.42-.63H75.85c-.19.42.73,1.13.42,1.68H61.46c-.09-.77.67-1.18.42-1.78C55.45,116.43,46.6,116.22,40.34,116.29Zm25.74-52C66,65.16,66,66,67,65.76,67.81,65.11,66.93,63.28,66.08,64.29Zm5.15,3.26c.72-.67.54-2.52.21-3.47C70.13,63.66,70.12,67.38,71.23,67.55Z"/><path class="cls-1" d="M22.38,79H23c-.19.94.25,1.7,0,2.52s-2.33,2.13-3,2.63a24.79,24.79,0,0,0-3,2.52,51,51,0,0,0,5.15-.11c.37-.15,0-1.07.42-1.15.67-.12.42,1,.42,1.68s.22,1.76-.32,1.78-.15-.82-.42-1.05c-2.45-.45-5.72-.09-8.51-.21,0-.88,1-1.25,1.47-1.68,1.65-1.36,3.36-2.8,5-4.2-1.18,0-3.91,0-5.46,0-.36.13-.06.92-.31,1.16h-.42c-.42-.71-.22-2.59-.11-3.47h.42c.46,0,.06.93.32,1.15C17,80.27,22.63,82,22.38,79Z"/><path class="cls-1" d="M114.72,80.15H115c.52,0,.22.77.53.95,1.13,1.31,2.92,2,4.3,3.05h3c.36-.13.06-.92.32-1.16h.63v4.1h-.53c-.43,0-.12-.66-.21-1-.58-.5-1.92-.25-2.94-.31-1.53,1-3,2-4.52,2.94-.33.26-.07,1.12-.73,1-.38-.39-.21-1.36-.21-2.21s-.25-1.81.31-2,.15.9.53,1a13.13,13.13,0,0,0,3.25-2,12.67,12.67,0,0,0-3.15-1.89c-.48,0-.07,1-.63,1C114.33,83.13,114.9,81.27,114.72,80.15Z"/><path class="cls-1" d="M14,88.24h.42c.39,0,.19.66.42.84,2.61,1.56,6,2.32,8.51,4-2.49,1.64-5.83,2.43-8.51,3.88-.25.27,0,1.08-.63,1a7.34,7.34,0,0,1,0-3.89c.71-.18.27.78.63,1a7.4,7.4,0,0,0,2-.74v-3a7,7,0,0,0-1.89-.73c-.53,0,0,1-.63,1-.7-.36-.13-2-.32-2.84Zm3.78,5.57a9.27,9.27,0,0,0,2.63-1.15c-.92-.31-1.67-.79-2.63-1.06Z"/><path class="cls-1" d="M117.13,90.55c0,.91-1,.53-1.36,1.16-.25.47,0,.91-.11,1.79,2.39-.07,5,.13,7.25-.11.4-.09,0-.94.32-1.15h.42c.41,1,.21,3.07.1,4.2h-.42c-.45,0,0-.93-.31-1.16-2.22-.24-4.87,0-7.25-.1a3.36,3.36,0,0,0-.11,1.47c.26.86,1.38.48,1.47,1.36-.24.26-1.85.12-2.41,0,0-2,0-5.44,0-7.46C115.48,90.58,116.45,90.26,117.13,90.55Z"/><path class="cls-1" d="M23.11,98.33c-.19.92.27,1.69,0,2.52s-2.41,2.11-3.05,2.63c-1.2,1-2.18,1.73-3,2.52a51,51,0,0,0,5.15-.11c.48-.1,0-1.21.63-1.15s.31,1,.31,1.68.17,1.56-.21,1.78c-.75.13-.29-1-.73-1.15-2.77-.07-5.82.14-8.41-.11.11-.8.92-1.23,1.47-1.68,1.64-1.33,3.44-2.7,5-4.2H15c-.62,0-.1,1.15-.73,1.15s-.32-1.12-.32-1.78-.23-1.64.32-1.68.11,1,.52,1.15c2.07.24,4.59,0,6.83.11C22.56,99.88,21.93,98.2,23.11,98.33Z"/><path class="cls-1" d="M114.61,98.64h.63c.2.26,0,.88.21,1.16a51.66,51.66,0,0,0,7.36,0c.53,0,0-1.07.52-1.16.72,0,.42,1.32.42,2.1s.24,2-.31,2.11-.12-1-.53-1.16a51.52,51.52,0,0,0-7.35,0c-.4.09,0,.94-.32,1.16h-.42C114.34,101.86,114.75,100,114.61,98.64Z"/><path class="cls-1" d="M123.54,109.78c0,.39.76.08.53.73-.71.42-2.59.22-3.47.11-.1-.88.9-.69,1.36-1,.92-.5,2-3.58-.1-3.57s-1.93,5.43-5.57,4.62c-1.52-.33-2.35-2.58-1.36-4.62.08-.47-.64-.14-.42-.73a5.83,5.83,0,0,1,3.46,0c-.16.73-.83.47-1.36.73-.85.42-2,3.21-.11,3.26s2.35-6.27,6-4.62C124.06,105.45,124.4,107.74,123.54,109.78Z"/><path class="cls-1" d="M25.32,117.66c-.53,2.59-1.23,5-1.79,7.56a20.06,20.06,0,0,0,4.1-3.15c-.08-.59-.82-.84-.21-1.26a7.21,7.21,0,0,1,2.2,2.84c-.65.55-.69-.41-1.26-.53-2.48,1.47-4.44,3.47-6.93,4.94-.2-1.36.37-2.86.74-4.31s.72-2.92,1-4.31a50.48,50.48,0,0,0-4.42,3.37c0,.69.86.91.21,1.36a7.21,7.21,0,0,1-2.2-2.84c.65-.55.69.41,1.26.53,2-1.18,3.63-2.74,5.57-4,.38-1.09-.62-1.76-.21-2.31a12.73,12.73,0,0,0-3.79,1,11.05,11.05,0,0,0-3.46,1.47c0,.44.27.56.21,1-.22,0-.28.07-.42.1a14.29,14.29,0,0,1-1.47-4c.22.05.28-.07.42-.1.48.08.25.86.73.94a42.49,42.49,0,0,0,7-2.41c-.29-.91.15-1.29-.31-1.9-2.55,0-9.22,2.35-8.83-1.68a1.22,1.22,0,0,1,1.58-1.15c.9.67.07,1.62-.53,2,2.24.27,5.08-.66,7.46-.94a1.82,1.82,0,0,0,0-1.26c.15-.06.54.12.53-.11C23.5,111.85,23.43,115.6,25.32,117.66Z"/><path class="cls-1" d="M118.6,114.72a12.91,12.91,0,0,0,3.79-1.26c.6-.42.67-1.34,1.47-1.16a11.89,11.89,0,0,1-.74,2.63c-.78.36-1.77.53-2.63.84s-1.77.5-2.2,1.15c.61.68,1.93.66,2.83,1,.69,0,.37-1,.95-1,0,.09,0,.1.11.11.44.33,0,1.32-.22,2s-.53,1.46-.73,2c-.22,0-.28-.07-.42-.11-.44,0,.2-.57,0-1-2-1.08-4.65-1.58-7-2.31-.55.08-.29,1-.84,1,0-.09,0-.1-.1-.1-.47-.2-.11-.9,0-1.26a15.72,15.72,0,0,1,1.47-4.1C115.46,111.51,118.78,111.79,118.6,114.72Zm-4.3,1.15a21.9,21.9,0,0,0,3.15.95C118.94,113.92,114.21,112.86,114.3,115.87Z"/><path class="cls-1" d="M111.56,119.13c.74.35,1.22,1,2,1.26-.25,1-1,.11-1.58.21-1.06.18-1.26,1.71-2.1,2.31a8.55,8.55,0,0,0,2.32,1.89c.34-.66,1.36-1.19,1.36-2,0-.63-.83-.76-.42-1.37a7.78,7.78,0,0,1,2.84,2c-.13.8-.82.07-1.26,0-.84.39-1.15,1.3-1.79,1.89a16.81,16.81,0,0,0,2.63,2c.6-.67,1.75-1.43,1.89-2.52.11-.87-.82-1.61-.21-2.31a7.09,7.09,0,0,1,1.57,2.21c-1.44,1.88-2.63,4-4.41,5.56-.61-.42.17-.64.21-1.26a15.66,15.66,0,0,0-2.84-2.41c-.77-.59-2.38-2.13-3-2.1s-.6.83-1.16.63c-.37-.55.34-1.09.63-1.47C109.26,122.23,110.54,120.66,111.56,119.13Z"/><path class="cls-1" d="M33.72,127.32c.44-.18.49-.4.84,0-.13.93-1.22,1.79-1.68,2.73-.94-.37-.1-1.11-.1-1.89a2.79,2.79,0,0,0-2.42-2.73c-3.82-.46-6.67,6.25-2.21,7.46.44-.69,2.08-1.64,2.1-2.52,0-.59-.83-.6-.42-1.16.5-.26,1.18.52,1.69.95s1.3,1,1.36,1.47c-.4.54-.5,0-1.05-.11a24.21,24.21,0,0,0-2.52,2.74c-2.64-.74-4.79-2.14-5-4.73C23.72,123.81,32.12,122.52,33.72,127.32Z"/><path class="cls-1" d="M106.73,125.33c-.86,1.29.26,3.64.84,5.56.49,1.61,1.15,3.07,1.05,4.31-2.84-.9-5.55-2.85-8.4-4.1-.42.08-.65.34-1,.42-.73-.53.61-1.26,1.26-1.78s1.35-1.34,1.79-1-.4.54-.42,1c1.41,1.31,3.44,2,5.25,2.94-.5-1.92-1.08-3.76-1.68-5.57-.74-.08-1,.58-1.37,0,.44-1,1.58-1.29,2.21-2.1C106.54,125,106.48,125.29,106.73,125.33Z"/><path class="cls-1" d="M44.44,134.36c-.46.7-.64,1.68-1.37,2.1,0-.1-.13-.08-.21-.1a2.15,2.15,0,0,0-1.36-2.73,49.84,49.84,0,0,0-3.79,6.3c0,.52.73.32.74.84a.45.45,0,0,0-.21.42,19,19,0,0,1-3.57-2.31.3.3,0,0,0,.21-.32c.36-.26.52.41,1,.32,1.68-1.71,2.65-4.14,4.09-6.1-.59-.71-2.33-1.31-2.73,0a2,2,0,0,1-.94-.84A18,18,0,0,0,38,130.47C40.32,131.61,42.3,133.07,44.44,134.36Z"/><path class="cls-1" d="M98.12,131.94c-.24.32-.66.47-.84.84a40.87,40.87,0,0,0,4.2,6.2,1.42,1.42,0,0,0,1-.52c.19.12.22.41.42.52a16.57,16.57,0,0,1-3.58,2.31.27.27,0,0,0-.21-.31c.07-.49.72-.41.74-.95a34.52,34.52,0,0,0-4.1-6.09c-.65-.19-.79.55-1.15.32-.09-.09-.07-.29-.21-.32.85-1,2.23-1.55,3.25-2.42C98,131.48,97.91,131.84,98.12,131.94Z"/><path class="cls-1" d="M92.66,134.89c0,.52-.7.42-.85.84a76.58,76.58,0,0,0,4,7.45c-.62.54-1.48-.06-2.1-.31-2-.79-4.3-1.73-6.31-2.52a30.64,30.64,0,0,0,2.84,4.83c.56.13.76-.5,1.15-.21,0,.12,0,.19.11.21-.7.95-2,1.3-3,1.89a.46.46,0,0,0-.21-.42c.06-.5.74-.38.84-.84-.84-2.24-2.2-3.95-3.15-6.09-.76-.5-1.61.3-2.1-.11,0-.82,1.53-1.05,2.21-1.57,2.45.9,4.76,2,7.25,2.83a28.94,28.94,0,0,0-2.63-4.51,1.58,1.58,0,0,0-1,.42c-.23-.09-.13-.5-.42-.53.87-.64,2-1,2.84-1.68C92.54,134.44,92.38,134.88,92.66,134.89Z"/><path class="cls-1" d="M44.75,134.78c2.27,1,4.18,2.27,6.41,3.26a12.86,12.86,0,0,1-1,2.1c-1-.11-.18-.74-.32-1.26-.28-1.14-1.81-1.22-2.73-1.89a21.33,21.33,0,0,0-1.47,2.52,9.25,9.25,0,0,0,2.21,1.15c.65-.14.7-1.19,1.47-.63-.45,1.13-1.14,2-1.58,3.15-.2,0-.26-.22-.52-.2-.19-.27.19-.67.21-1.06-.4-.83-1.36-1.08-2.21-1.47a14.09,14.09,0,0,0-1.47,2.84c.77.5,1.64,1.41,2.63,1.47s1.53-1.09,2.41-.63a6,6,0,0,1-2.1,2c-1.91-1.28-4.28-2.09-6.09-3.47a.29.29,0,0,0,.21-.32c.32-.24.52.34,1.05.21.82-.5,1.16-1.79,1.89-3.15s2.63-3.4.84-4.2A.45.45,0,0,0,44.75,134.78Z"/><path class="cls-1" d="M57.88,141.61c.49,0,.59-.74.95-.21.18.68-.74,2.61-1,3.15-.75-.23-.34-1.51-.53-2.1a2.55,2.55,0,0,0-3.36-1.58c-2.73.82-4.36,7.39.11,7.46,1,0,1.8-1,2.52-.52.11.56-.64.69-1,.84a4.32,4.32,0,0,1-6.2-4C49.48,140.2,55.16,138,57.88,141.61Z"/><path class="cls-1" d="M82.78,140.87c-.08.45-.77.28-.84.74.08,2.43,2.74,4.28,2.21,7-.3,1.55-2.38,2.92-4.42,2.73-3.2-.3-2.85-4.93-4.83-6.72-.51-.16-.76.48-1.05.21-.45-.7.88-1.06,1.58-1.37s1.86-1,2.2-.52-.78.44-.84.94c.92,1.44,1.57,6.18,3.78,6.3a2.53,2.53,0,0,0,2.63-2.1c.1-1.08-.73-2.2-1.15-3.15s-.71-2.19-1.48-2.83c-.47-.12-.82.42-1,.2-.6-1,2.17-1.22,2.74-1.89C82.66,140.37,82.66,140.68,82.78,140.87Z"/><path class="cls-1" d="M59.88,142.14c1.29.53,2.62,1,3.89,1.57a2.13,2.13,0,0,0-.21.63,5.56,5.56,0,0,0-1-.31c-.9.53-1,1.92-1.47,2.83a24.24,24.24,0,0,0,3.26,1.47c.44-.88.78-1.88,1.15-2.83,0-.66-1-.38-.94-1.05.45-.57,1.27.17,1.89.42a9.57,9.57,0,0,1,2.1.84c0,.25-.19.23-.11.52-.51.09-.54-.3-1-.21-1.34,1.88-2,4.47-2.94,6.73,0,.54.67.52,1,.84-.22.93-1.29.14-1.89-.11-.77-.31-1.59-.67-2.21-.84a2.33,2.33,0,0,0,.21-.63c.46,0,.59.32,1.16.21a20.3,20.3,0,0,0,1.36-2.94c-.93-.65-2.24-.91-3.26-1.47-.53.87-.81,2-1.26,2.94,0,.67,1.31.5.84,1.36a14.15,14.15,0,0,1-2.1-.73c-.61-.24-1.51-.4-1.78-1,.1,0,.08-.13.1-.21.34-.26.59.27,1.16.1.77-1,1.52-3.32,2.2-5,.43-1.07,1.17-2.15-.31-2.41C59.64,142.46,59.91,142.44,59.88,142.14Z"/><path class="cls-1" d="M44,87a13,13,0,0,0,.63,2.31c.27.25.94.11,1.15.42-1.09,1.12-2.75,1.67-2.94,3.68,1.41-.62,1.79-2.27,3.26-2.84a4.51,4.51,0,0,1,.84.85c0,.82-.41,1.55-.53,2.62-.19,1.81.64,3.66-.84,4.2-.45-.32-.72-1.23-1.57-.84-.12.39.39.17.31.53-.35.34-.49.91-1,1A1.35,1.35,0,0,0,42.23,98c-.08-.67.88-.31.63-1.15,0-.23-.37,0-.52-.11a1,1,0,0,0-.32-.94c-.73.4-1.41.8-1.37,1.57s1.25,1.18.53,1.89c-1.52-.11-1.84-1.79-1.58-3.36.46-.1.19.52.53.53,1.18-.4,1.27-1.88,2.1-2.63-.22-.62-1.37-.31-1.47-1a4.75,4.75,0,0,0,2.42-2c.18-1.37-.39-2.88.1-3.88C43.62,86.82,43.77,87,44,87Zm.52,5.78a2.08,2.08,0,0,1,.32.74c-.14.64-.89.93-1,1.57s.65,1,.42,1.68c.34,0,.45.19.84.11.58-1.18.47-3.4.21-4.83-.13,0-.14-.14-.31-.11C45.07,92.37,44.54,92.31,44.54,92.76ZM43,95.49c.52-.19.91-1.35.52-1.78C43.22,94.19,42.69,94.79,43,95.49Z"/><path class="cls-1" d="M83.62,88c2.14.21,1.63,2.47,1.37,4.42.71.16,1-.91,1.78-1,.1.18.39.17.42.41-.53.73-1.64.88-2.31,1.48,0,2.26-1.35,3.19-2.94,3.88.16-1.21,2.12-1.51,2-3.36-1.32.18-2.43,2-4.52,1.37.26-.82,1.46-.82,2.31-1.16s1.67-.72,2.42-1A8,8,0,0,0,83.62,88Z"/><path class="cls-1" d="M55.15,88.56c0,.31.26.76.11.94-.87.06-1.75-.29-1.58-.94C54.2,88.36,54.51,88.61,55.15,88.56Z"/><path class="cls-1" d="M56.94,89.5c-.4.79-2.14,1.26-3.15,1.9-.83.51-1.49,1.62-2.52.52C53,91.15,55,90.63,56.2,89.29,56.53,89.28,56.84,89.29,56.94,89.5Z"/><path class="cls-1" d="M65.76,91.92C65.5,93.3,64.5,94,64,95.07c.39.32.65-.39,1.26-.21,0,.83-1.13,1-1.79,1.37-.91.52-1.55,1.19-3.15,1-.25-.28-.66-.4-.74-.84,3-.1,3.87-2.3,5-4.2-.71-.11-3.16.83-2.73-.74C63.41,92,65.12,90.73,65.76,91.92Z"/><path class="cls-1" d="M56.52,91.92a5,5,0,0,1-1.05,1c-.12.39.26.3.21.63l-1,.53c.11,1.12.61,3.26-.32,3.88-.51-.33-.45-1.23-1.15-1.36-1,.14-.51,1.8-1.89,1.57A2.81,2.81,0,0,1,51,96.75a13.14,13.14,0,0,0,2.1-.84c.41,0,.45.46.84.53.29-.72-.31-1.91.63-2.1-.41-.89.38-1.33.63-1.89-.4-.27-.92,1.17-1.47.42C54.51,92.49,55.44,91.05,56.52,91.92Z"/><path class="cls-1" d="M53.89,94.34c-.21,0-.2.28-.42.31a1.4,1.4,0,0,1-.94-1.47C53.2,92.68,54,93.38,53.89,94.34Z"/><path class="cls-1" d="M55.57,94.86c1.09,0,1.41,2.86,0,2.42A6,6,0,0,1,55.57,94.86Z"/><path class="cls-1" d="M86.46,95.39a1.82,1.82,0,0,1,1.36,1.89c-.25.13-.38.38-.84.31C86.6,97.07,86.77,96,86.46,95.39Z"/><path class="cls-1" d="M75.64,97.28c-.36-.42-1-.55-1-1.26C75.36,95.53,76.5,96.77,75.64,97.28Z"/><path class="cls-1" d="M95,85.93c.43,0,.87,0,1,.21,0,.12,0,.19.1.21C96,87.53,95,87.76,94.76,88.77a1,1,0,0,0,.63.31c.86-.54,1.55-1.94,2.83-1.15,0,1.71-1.5,2-1.78,3.47,1.26,1-.64,1.95-1.16,2.52.25.2,1.24-.25,1.47.21a1.29,1.29,0,0,1-1.36,1.36c.18,1,.45,2.85-.11,3.68a7.75,7.75,0,0,1-1.89-.84c.16-.4.76-.37,1.26-.42a9.33,9.33,0,0,0-.1-2.1c-.86.28-1.66,1.67-2.84.94C92.52,96.06,94,96,94.44,95c-.27-1.43,1-1.34,1.16-2.31-.48-.06-1.22,1.08-2,.73a4.15,4.15,0,0,1,2.21-1.68A8.69,8.69,0,0,0,97,88.77c-.59-.07-.58.47-1,.52a1.65,1.65,0,0,1-1,2.42c0-.3.19-.44.21-.74-.51.16-.54.8-1,1-.28-.32.23-.47.11-1-.67.22-.75,1-1.26,1.37-.36-.57-1.21-1.16-1-2,.75-.15.71.48,1,.74.15-.89-.91-1.47-.84-2.63.57,0,.75.37,1.05.63C94.48,88.74,94.85,87.46,95,85.93Zm-1,3.89c.18.09.26.29.63.21C94.68,89.58,94,89.46,93.92,89.82Zm1.36.84c0-.2.3-.19.21-.53-.13,0-.14-.13-.31-.1C95.24,90.21,95.05,90.65,95.28,90.66Z"/><path class="cls-1" d="M75.74,87.51c.11,1.33-.54,1.9-.52,3.15.62-.34,1.5-.24,1.47.63-1.67-.13-3,.07-3.36,1.26.65-.09.74-.73,1.68-.52.24.56-.38.51-.53.94-.28.82.37,2-.52,2.42,0,.86.28,1.76-.11,2.41-.53,0-.69-.36-1-.52a3.59,3.59,0,0,0-1.57,1.89c-.68.14-.4-.85-.32-1.16.73-.67,2-.74,2.21-2-.16-.24-.63.48-1,.1,0-.75.94-.46.74-1.36-.13-.32-.41.15-.53-.11.61-.71,1.76-.9,1.89-2.1-.7.14-.76.92-1.68.84v-.63c-.83.15-1.08.88-2.21.74-.19-.19-.24-.53-.42-.74,1.17-.34,2.83-.18,3.47-1.05a2.62,2.62,0,0,1-.31-.84c-.44,0-.58.5-1.05.21v-.74c1.16.19,1-.91,1.05-1.89.44,0,.53.31.73.53,0,.56-.31.74-.21,1.36.36-.13.38-.59.42-1,.19,0,.22.13.42.11C74.85,88.72,74.56,87.38,75.74,87.51ZM74,90.76a.69.69,0,0,1-.11.53c1,.27,1.47-1.93,1.05-2.73C74.6,89.25,74.87,91,74,90.76Z"/></g><g id="纵向"><path class="cls-1" d="M389,441.31h.32c1.72.24,3.64.28,4.93.95,3.07,6.88-5.76,9.11-6.72,14.7,1.27.54,2.59,1.76,4.1,1.48.77-.15,1.54-1.48,2.2-2.11,2.14-2,5.1-4.07,7.15-5.67a16.19,16.19,0,0,1,5.67,2.1V453c-1.1,8.21-8.07,10.56-9.77,18.18.62.46,1.47.17,1.89.94a13.42,13.42,0,0,1,.63,3.89c-.2.78-1.41,1.75-2.1,2.42-2,1.88-4.37,3.34-6,5.25-.27.32-.84.8-.63,1.26,2.29-.15,5.2-1.25,7.36-.21.3,1.2.87,2.59.31,3.89-.33.76-1.8,1.42-2.42,2.1-.88.95-1.51,1.84-2.41,2.1s-1.61-.07-2.1.1c.2,4.54,1.73,12.67.63,17.23a3,3,0,0,1-2.84,2.31c-1,0-1.15-.33-1.79-.84-2.09-1.69-6-1.75-7.35-4,1.22-2,5.15-1.23,7.35-2.21-.24-3.63-.3-7.47-.52-11.13-2.54.7-4.63,3.05-6.93,4.73-2.06,1.49-5.75,3.39-8.72,1.26-.27-2.51,1.57-2.48,3.36-3.05,1.48-.47,3-1,4.1-1.47,2.85-1.24,7.17-3.59,7.35-7.14.06-1.21-.42-1.85-.21-2.74.28-1.2,1.76-2.3,2.84-3.25a14.85,14.85,0,0,0,2.94-3.26,2.92,2.92,0,0,0,.52-2.1c-1.05-.06-1.71.92-2.41,1.47a17.32,17.32,0,0,1-4.94,2.84c-.91.31-2.15.76-3.15.21-.53-1.07.11-1.71.84-2.31l2-1.69a33.62,33.62,0,0,1,4.1-3.25c1.3-.75,3-1.07,4.2-1.89,1-.7,1.69-2.65,2.31-3.89,1.88-3.73,3.71-7.33,4.42-12-1.37-.12-2.15.89-2.95,1.48a14.51,14.51,0,0,0-2.52,2c.26,1.43,1.54,2.41,1.58,3.78a7.71,7.71,0,0,1-1.05,2.84c-1.3,2.48-3.66,5.26-6,5.78-.61-1.32,1.1-2.48.84-3.78-1.32.23-1.89,1.51-2.73,2.52-.39.47-.86,1-1.26,1.47s-.91,1.1-1.89.84c-1.17-1.69,1.51-3.35.94-5-1.33-.34-1.74.82-2.2,1.47-1.09,1.51-2,2.69-3.15,4.3-.49.7-.88,2.09-2.11,1.68-.42-.13-.63-.95-.84-1.47-.81-2.09-1.7-2.75-2.94-4.62-.56-.85-1.56-2.79-1.26-3.78s2.53-1.53,3.68-.74c.49.34.72,1.64,1.15,2.32s1.1,1.46,1.79,1.36c.12-1.43-.65-2.58-1.15-3.68-1.57-3.36-3.69-6.23-3.89-10.5,1.63.22,3.13.41,4.09,1.26.74.65.73,1.8,1.48,2.52,5.24-1.73,7.71-5.82,8.93-11.45.41-1.9.25-3.93.94-5.88Zm-9.56,20.28c.48.08.73.39,1.26.42.29-.34.67-.6.74-1.16a11.08,11.08,0,0,0-1.47-.52C379.78,460.71,379.64,461.17,379.46,461.59Zm4.1.63c.05,1.28,2.41,2,3.36.63C386.6,461.6,383.48,460.21,383.56,462.22Zm6.41,4.83c1.84.19,2.26-3.61.42-3.78C390.32,464.61,390.07,465.75,390,467.05Zm-8.62,0a2,2,0,0,0,1.26-.42c0-.4-.33-.51-.42-.84h-1.05A3,3,0,0,0,381.35,467.05Z"/><path class="cls-1" d="M116.1,447.09c1.38,4.5,2.24,9.52,4.51,13.13,1.9.25,3.46.82,5.36,1a14.68,14.68,0,0,1-.42,2.21,36.49,36.49,0,0,0-12.92,10.92c-1.48,2-2.92,4-2.52,7.15,4.87-2.37,8.17-7.69,12.29-11.66.75-.72,3.2-3.36,4.41-3.47s2.51,1.24,3.26,2a13.47,13.47,0,0,1,2.31,2.73c-.63,3-1.53,6-2.31,9a17.83,17.83,0,0,0-.74,2.94,84.82,84.82,0,0,0,.21,8.62c.12,3,.11,6.05.21,8.61a7,7,0,0,1,.11,1.58c-.2.94-1.81,2.12-2.52,2.94a13,13,0,0,1-2.84,2.62c-1.86-2-4.9-7.48-8.4-4,.23,1,1.65.8,2.1,1.58,0,.88-.81,1.09-1.26,1.68-1.37,1.77-1.89,4.33-4.1,5.25-1.1-1.45-1.93-3.18-2.94-4.73a8.55,8.55,0,0,1-3.57-.52,19.76,19.76,0,0,0,.42-2.31c2.22-.48,4.51-2,3.15-4.83-1,0-1.81-.23-2.84-.21.07-2.18.34-4.72-1.89-4.63-1.18.05-3,2-3.68,2.63-1.26,1.16-3.07,2.79-3,5.25,0,3.19,3.72,4.11,4,6.62.19,1.75-1,2.73-1.16,3.89H98.34C93.83,510.28,90.2,501.68,93,495c.51,0,.74.31,1.26.32.34.71.24,2.46,1.26,2.73s2.4-1.66,3.15-2.42a22.29,22.29,0,0,0,6-10.5,14.43,14.43,0,0,0,2.41-.74A4.55,4.55,0,0,0,105.8,482a13.3,13.3,0,0,1-4.83-1.26c-.8-.36-2.34-.93-2.31-1.68s3-2.24,3.88-2.84c1.52-1,2.78-1.86,3.89-2.73,2.32-1.81,5-3.8,5.36-8,.06-.71.1-1.52.1-2.31,0-5.13-1.54-10.91.11-16.07C113.27,446.4,114.67,446.7,116.1,447.09Zm6.4,26.58a51.06,51.06,0,0,0-3.36,4.2c.35,1.48,1.46,2.06,1.58,3.57.14,1.87-1.64,3.46-2.63,4.94s-1.77,3-2.52,3.89c1,1.33.86,3.46.42,5.35h2c.2.64.67,1,.84,1.68-.22.77-.65,1.32-.84,2.11a10.59,10.59,0,0,0,5.25.31c1.18-7.7,1.77-17.48.53-25.53C123.38,474,122.92,473.85,122.5,473.67Zm-11.34,19.64c1.7-2.3,3.71-6.27,2.63-10,0-.08-.09-.12-.21-.1C111.94,485.64,109.52,489.59,111.16,493.31Z"/><path class="cls-1" d="M286.39,450.14c-.1,6.46-3.45,10.19-2.95,16.91,1.65-.61,3.86-1.87,5.89-.84.65,1.49,2.36,2.45,2.1,4.52-2.23-.06-4.7-.58-7-.53-5.44.12-9.2,2.6-11.14,6.3.15.31.49.43.63.74a17.23,17.23,0,0,0,2.53-1.68c.79-.59,1.59-1.56,2.31-1.79a4.26,4.26,0,0,1,3.57.84c.1,2.8-2,3.44-2.84,5.26a4.25,4.25,0,0,1-.94,5c.55,1.48,1.34,3.27.63,4.94-.55,1.26-2.27,2.11-2.84,3.15.14,3.67,2,10.19-.42,12.6a20.84,20.84,0,0,1-5.67-3.36c-4.06,2-6.2,5.85-7.88,10.19a22.71,22.71,0,0,1-2.42-.21c-.33-.79-.83-1.41-1.15-2.2,1.6-7.93,12.56-6.49,13.55-15-1.22.77-5.6,3.55-5.67-.42,1.15-1.19,2.95-1.73,4.09-2.94V488c-1,.1-1.45,1.25-2.52.64-.26-.46.1-1.06.11-1.58,3.37-1.56,7.67-4.07,9.35-7.56a4.85,4.85,0,0,0,.42-2.53c-.72.52-1.54.74-2.31,1.26-2,1.4-2.9,4.14-6.52,3.58-.05-1.35-.21-2.6-.21-4-2.86,1.06-6.84,5.4-11.13,4.63-1.81-.33-2.55-2.15-2.74-4.42.9-.07,1.35-.71,2.11-.84,1.87-.3,3.7.27,5.35.11,4.35-.43,7.64-3.19,11.14-4.62a7.05,7.05,0,0,1-1.89-4.83c-1.32.64-2.07,1.85-3.78,2.1a13.22,13.22,0,0,1-1.89-1.26,16.2,16.2,0,0,1,.31-3.68c.79.21,1.06.64,1.89.63,4.13-.05,2.93-6.49,3.47-10.4,1.8-.39,2.35.53,3.15,1.47.41.48,1.18,1.22,1.26,1.68.36,2.12-2.86,4.42-1.37,6.83,2.11-.34,1.67-3.24,1.69-5.67,1.5-.35,1.62.69,2.52.94,1.54-3.22,1.44-8.08,3.78-10.5C284.25,449.82,285.12,450.17,286.39,450.14Zm-8,18.06c-.55-.21-1.19-.34-1.78-.52-.11,1-.72,2.25-.32,3.05,1-.56,2.78-1.21,4-1.89.5-4,3-9,1.68-13.35,0-.08-.08-.12-.21-.1C280.26,459.28,280.66,465.07,278.4,468.2Zm-5.15,17.55a1.26,1.26,0,0,0,.32.84c.59-.78,1.7-1,1.89-2.21C274.48,484.59,274.12,485.42,273.25,485.75Zm-2.1,14.71c.22.2.22.62.63.63a8.46,8.46,0,0,1,1.26-.42c.09-.44-.16-.54-.1-.95C272.24,499.08,271.56,499.91,271.15,500.46Z"/><path class="cls-1" d="M335.86,477a19.29,19.29,0,0,0,5.68-3.68c.56-.58,1.35-2.54,2-2.73s1.76.62,2.31.95,1.45.77,1.58,1.57c.27,1.72-1.3,1.94-2.63,2.52a71.76,71.76,0,0,0-9.66,5.68c-.52,5.72-1.9,10.37-5,13.65a32.32,32.32,0,0,1-5.26,4.1c-1.75,1.19-3.77,3.25-6.3,2.52-.2-.36.26-.64.42-.84,1.61-2,3.68-3.94,5.57-6,2.1-2.28,4.54-5,5.25-8a5.05,5.05,0,0,0-.42-3.57c-3,1.4-5.85,3.45-9,5.25-3.87,2.19-9.57,5.15-14.4,2.63a3.49,3.49,0,0,1,.95-3.05,71.79,71.79,0,0,0,24.06-9.14,45.64,45.64,0,0,0,.73-10.19c0-3.43-.14-7.13-1.05-9.87-.75-2.29-2.46-3.82-2.83-5.78.28.06.49-.48.63-.21,4.51,1.47,8.85,3.38,8.93,8.82C337.4,466.64,335.25,471.45,335.86,477Z"/><path class="cls-1" d="M176,456c.64,1.28,1.5,3.3.73,5-4.63.32-7.67-.95-9.14-3.78a16.68,16.68,0,0,0,.63-1.68C170.56,455.25,174.14,455.18,176,456Z"/><path class="cls-1" d="M155,473.77c.15-.54.65-.75.84-1.26,5.38-.66,10-2.9,14.18-5.15a71.31,71.31,0,0,0,12.08-7.87c1.14,0,3.59,0,3.47,1.68-.07.91-2.11,1.82-2.74,2.2-6.34,3.93-13,6.24-18.59,11-.67.58-2,2.2-2.52,2.31-1,.23-2.93-.66-3.78-1A14.73,14.73,0,0,1,155,473.77Z"/><path class="cls-1" d="M230.08,489.64v2.41c-3.62,1.48-7.26,3.8-11.14,6s-7.9,4.44-12.39,4.73a7.13,7.13,0,0,1-5.36-1.68c-.69-.66-1.94-2.23-1.58-2.95s3.79-.76,5.26-1.05c5.47-1.06,8.95-3.3,11.76-6.93,2-2.53,3.48-5,5.25-7.25s4-4.11,4.73-7.67c-4.24-1.5-8.52,2.89-12.5,1.37-1.29-.49-1.91-1.68-2.73-2.84a24.37,24.37,0,0,1,.73-2.62c4.85,1.07,11.21,1,15.13-.63,1.5-.63,3.37.76,4.2,1.57.47.45,1.16,1,1.26,1.47.28,1.36-1.2,4.2-1.68,5.15-2,4.05-4.67,6.06-6.82,10.19-.34.65-1.19,1.76-.74,2.21.61.61,2.54-1,3-1.26A3.39,3.39,0,0,1,230.08,489.64Z"/><path class="cls-1" d="M177.87,471.57c2.24.24,4.14.83,5.36,2.1-.12,2.76-3.26,3.37-4.73,5a3.42,3.42,0,0,0-.95,1.89c.12.83,1.26.74,1.37,1.79-1.66,1.39-4.2,1.89-5.68,3.46,1.41,6,1.85,15.61-.73,20.7h-1.89c-1.19-3.23-2.6-6.23-5.36-7.88-3,1.58-4.24,5-5.57,8.3-1.47.33-3.48,1-5,.31-.56-2.32-2.28-5.27-.94-7.87a92.93,92.93,0,0,0,8.71-3.26c.76-.31,2.23-1.19,2.84-1.16,1.45.08,2.47,2.93,4.1,3.05,1.13-3.15-.84-6.89.63-9.56.49-.89,2.12-1.36,2.31-2.21.29-1.26-.56-2.62-.42-3.67.16-1.26,1.36-2.47,2.21-3.36s2.44-1.73,1.57-3.16c-2.12.68-2.72,3.84-5.57,4a3.65,3.65,0,0,1-2.31-.74,5.23,5.23,0,0,1,.42-1.79A21.51,21.51,0,0,0,177.87,471.57Z"/><path class="cls-1" d="M164,479.34c2.31-.48,4.83,2.29,5.15,4.62.43,3.17-2.11,5.72-4.62,3.47a9.62,9.62,0,0,1-1.9-2.94c-.27-.63-1.26-2.8-1-3.68C161.74,480.17,163.14,479.52,164,479.34Z"/><path class="cls-1" d="M178.08,489a6.44,6.44,0,0,1,1.26.21c2.49.95,5.41,8.12,3.57,11.66a3.6,3.6,0,0,1-5.15,1.36c-.42-3.88-.8-9.26.11-12.92C178,489.24,177.93,489,178.08,489Z"/><path class="cls-1" d="M350.68,501.82c-.71,2.29-4.47,3.47-5.89,1.05-.22-2,.29-3.86,0-6-.25-1.87-2.09-4.09-.94-5C347.67,493.62,350.22,496.68,350.68,501.82Z"/><path class="cls-1" d="M280,495.62c.47-.16,1.11-.7,1.47-.63a7.8,7.8,0,0,1,4,1.47c1,.78,2.29,2.58,2.1,3.79-.1.67-1.8,2.72-2.63,2.41-.37-.14-1-1.47-1.36-1.89-.87-.92-3.79-2.39-4-3.57C279.47,496.7,280,496.11,280,495.62Z"/><path class="cls-1" d="M156.27,530.61c1.94,4.7,4.31,10.34,6.52,15.54.85,2,1.4,5.44,4.51,5.15v1.89h-9.56V551.3a3.11,3.11,0,0,0,2.11-.42c-.14-1.93-1.12-3-1.58-4.62h-7.14a23.51,23.51,0,0,0-1.79,4.41c.41.61,1.41.62,2.42.63v1.89h-7.88v-1.78c2.79.09,3.43-3.27,4.3-5.36,2.08-5,4.66-10.55,6.62-15.13,0-.15,0-.3.11-.31Zm-4.09,13.13a46.13,46.13,0,0,0,5-.11c-.91-1.85-1.59-3.94-2.52-5.78C153.84,539.8,153,541.72,152.18,543.74Z"/><path class="cls-1" d="M267.21,532a2.33,2.33,0,0,0,.21-1.36h1.78c.27,2.56.5,5.17.63,7.87h-1.68a6.63,6.63,0,0,0-5.88-5.46c-4.74-.26-8,3.76-7.56,10,.27,3.86,2.39,8,6.93,8.3a9.44,9.44,0,0,0,4-.84c-.17-2.56.41-5.87-.42-7.77a5.91,5.91,0,0,0-2.31-.21v-2h9.35v2a7.13,7.13,0,0,0-1.89.1c-.89,2.26-.2,6.1-.42,9-2.27,1-3.79,1.81-6.3,2-7.21.53-13.2-3.08-13.76-9.87S253.8,531,260.8,530.61C263.47,530.47,265.2,531.25,267.21,532Z"/><path class="cls-1" d="M351.57,532.08c.58-.19.48-1.06.84-1.47H354c.13,2.84.39,5.56.53,8.4h-1.68c-.59-1.75-1.09-3.58-2.53-4.73a6.73,6.73,0,0,0-7.66,0c-2.42,1.85-3.11,5.87-2.84,9.56.29,4.11,2.65,6.93,6.51,7.15,3.49.19,5.61-1.77,7.25-4.52a10.29,10.29,0,0,1,1.58.94c-1.63,3.18-4,5.85-8.09,6.2a11.14,11.14,0,0,1-8-2c-5.63-4.5-5-13.69-.63-18C341.3,530.86,347.42,529.42,351.57,532.08Z"/><path class="cls-1" d="M136,545.31c-.13-3.93.26-8.38-.21-12-.58-.44-1.73-.3-2.73-.32v-1.89h8.61V533c-.66.16-1.87-.29-2.52.21s-.42,3.49-.42,4.83v15.45c-1.81.4-2.12-.77-3-1.89-3.66-4.42-7.57-9.3-11.24-13.45.11,4.2-.23,8.84.21,12.71a4.62,4.62,0,0,0,2.73.42v1.89h-8.5V551.3c3.08.59,2.94-1.19,2.94-4.2v-8.19a21.19,21.19,0,0,0,0-4c-.39-1.39-2.46-2-4.1-1.89.07-.6-.14-1.47.11-1.89h6.4C128.29,535.72,132,540.7,136,545.31Z"/><path class="cls-1" d="M187.16,545.31c-.15-3.95.33-8.52-.32-12-.53-.45-1.66-.3-2.62-.32v-1.89h8.51V533c-.65.17-1.89-.3-2.52.21-.78.63-.42,3.49-.42,4.83v15.45c-1.8.41-2.13-.79-3-1.89-3.69-4.42-7.53-9.24-11.14-13.45.07,4.17-.13,8.61.11,12.61.49.63,1.71.53,2.83.52a6.69,6.69,0,0,1-.1,1.89h-8.51V551.3c.73,0,2,.12,2.52-.31,1-.87.42-5.75.42-7.88V539a22.27,22.27,0,0,0,0-4.1c-.36-1.43-2.45-2-4.09-1.89.06-.6-.14-1.47.1-1.89,2,.49,4.41-.64,6.41,0,.61.2,2.57,2.89,3,3.47C181.26,538.17,184.23,542.2,187.16,545.31Z"/><path class="cls-1" d="M208.06,531.13V533c-3.42-.95-2.94,1.9-2.94,4.62,0,4.57.73,10.46-1.15,13.35-.79,1.2-3.42,3.67-6.62,2.41a3.38,3.38,0,0,1-1.89-2,2.26,2.26,0,0,1,2.2-3c1.94,0,1.6,1.5,2.74,2.84.73-1.11.42-2.72.42-4.21,0-4.3.08-9.25-.11-13.44-.47-.65-1.71-.53-2.84-.53.07-.6-.13-1.47.11-1.89Z"/><path class="cls-1" d="M220.88,531.13V533a6.16,6.16,0,0,0-2.42.21c-1.25.8-.63,6.62-.63,8.51a69.27,69.27,0,0,0,.21,8.93c.42.74,1.67.64,2.84.63v1.89H210.59V551.3c.59,0,2.16.14,2.62-.31s.42-2.68.42-4.1v-9c0-3.06.45-5.58-3-4.83.06-.6-.14-1.47.1-1.89Z"/><path class="cls-1" d="M241.05,545.31c-.13-3.93.26-8.38-.21-12-.57-.44-1.73-.3-2.73-.32v-1.89h8.61V533c-.65.16-1.87-.29-2.52.21s-.42,3.49-.42,4.83v15.45c-1.81.41-2.12-.78-3-1.89-3.68-4.42-7.55-9.32-11.24-13.45.09,4.18-.22,8.76.21,12.61.45.62,1.63.54,2.73.52v1.89h-8.51V551.3c.63-.06,1.91.15,2.41-.21,1.06-.75.53-5.76.53-7.88V539a22.27,22.27,0,0,0,0-4.1c-.37-1.42-2.45-2-4.1-1.89.07-.6-.14-1.47.11-1.89h6.4C233.35,535.71,237,540.69,241.05,545.31Z"/><path class="cls-1" d="M309.12,531.13c.16,2,.2,4.15.32,6.2h-1.89c.21-3.22-2.08-3.94-5.46-3.57.19,5.66-.4,12.09.31,17.23a5.3,5.3,0,0,0,2.63.31v1.89H294.94V551.3c.77-.1,2.1.27,2.63-.42s.31-2.74.31-4.1V533.86c-3.13-.61-5.7.25-5.35,3.47h-1.9a57.48,57.48,0,0,1,.43-6.2Z"/><path class="cls-1" d="M329.71,531.13c.08,2,.14,4,.32,5.88h-1.89c-.42-1.22-.17-2.39-1.05-3-1.53-1.14-4.95,0-7.36-.42-.24,2.06,0,4.58-.1,6.83,2.87.13,7.27.9,6.51-3H328v8.51h-1.78c-.16-.75-.31-1.51-.42-2.31-1.06-1.26-4.07-.55-6.2-.73.06,2.52-.13,5.31.1,7.67,2.32-.08,4.79.52,6.73,0s2.43-2.48,3.36-3.89h1.89c-.65,2.25-1.44,4.37-2.21,6.51H312.38V551.3c1.16,0,2.28,0,2.84-.52.17-5.54.17-11.8,0-17.34-.51-.57-1.78-.39-2.84-.42.07-.6-.14-1.47.11-1.89Z"/><path class="cls-1" d="M368.37,531.13V533c-4.61-1.36-2.44,4.56-2.94,7.67h8.3c-.09-2.36.21-5.11-.21-7.14-.45-.64-1.64-.54-2.73-.53a7,7,0,0,1-.11-1.89H381V533c-1.13,0-2.37-.12-2.84.53a143.8,143.8,0,0,0,0,17.12c.42.74,1.67.64,2.84.63v1.89H370.79a3.57,3.57,0,0,1,0-1.89c4.69,1.36,2.37-5.21,2.94-8.09h-8.3c.07,2.46-.13,5.18.11,7.46.42.73,1.67.64,2.83.63v1.89H358.18V551.3c.67-.07,1.89.17,2.42-.21.84-.6.52-2.81.52-4.1,0-4.4.16-10.08-.21-13.55-.56-.48-1.65-.44-2.73-.42.07-.6-.13-1.47.11-1.89Z"/><path class="cls-1" d="M294.47,566.22c.58,0,.33-.86.63-1.16h1.68v8.51H295c-.18-3.18-1.89-6.36-5.56-6a2.76,2.76,0,0,0-2.63,2.53c0,1.8,2.77,3,4.52,4,3,1.64,7.39,3.32,6.83,8.4-.34,3-3.21,5.38-6.62,5.57-2.25.13-3.88-.68-6.1-1.16-.39.13-.17.88-.42,1.16h-1.78v-8.41H285c.52,1.64.48,3.3,1.79,4.52,1.88,1.76,7.25,2.17,7.35-1.26a3.4,3.4,0,0,0-.84-2c-2.42-2.72-8.29-3.62-9.87-7.57-1.77-4.4,2-8.8,7.25-8.3A17.76,17.76,0,0,1,294.47,566.22Z"/><path class="cls-1" d="M131.43,565.48h10.19a6.69,6.69,0,0,1,.1,1.89c-1.05.12-1.92-.19-2.52.21-1,.67-.52,4.65-.52,5.89,0,3.5-.48,7.72.73,10,1.68,3.11,8.13,2.3,9.25-.74,1-2.82.52-7.51.52-11.34,0-2.8.3-4.54-3-4v-1.89h8.72v1.89c-1.28-.08-2.36,0-2.84.74-1,5.66,1.12,12.9-1.47,16.7s-10.64,4.59-14.08,1.05c-2.65-2.73-2.1-8-2.1-13.44,0-3.12.63-5.83-3.05-5C131.39,566.78,131.19,565.9,131.43,565.48Z"/><path class="cls-1" d="M177,579.77v-6.3c0-3.06.87-7.05-2.94-6.1v-1.89h8.51v1.89c-.64.15-1.79-.24-2.42.21-.85.62-.52,3.36-.52,4.73V588c-1.65.36-2.08-.71-2.94-1.78-3.67-4.54-7.62-9.36-11.24-13.66.12,4.22-.27,9,.21,12.82.55.45,1.74.28,2.73.31v1.89h-8.62v-1.89c.55-.08,1.77.16,2.31-.1,1.18-.57.63-5.82.63-7.88v-4.2c0-1.53.28-3.22,0-4.21-.38-1.41-2.48-2-4.09-1.89.07-.59-.14-1.47.1-1.89h6.41C169.26,570.09,172.94,575.13,177,579.77Z"/><path class="cls-1" d="M197.93,565.48a6.69,6.69,0,0,1,.1,1.89c-.69.11-2-.19-2.52.21-.83.6-.52,2.83-.52,4.1,0,4.41-.16,10.09.21,13.55.54.51,1.66.44,2.73.42a6.69,6.69,0,0,1,.1,1.89H187.74v-1.89c.6-.09,1.73.17,2.31-.1,1-.46.63-2.7.63-4,0-4.46.09-10.18-.11-13.56-.46-.69-1.66-.64-2.83-.63.07-.59-.14-1.47.1-1.89Z"/><path class="cls-1" d="M212.74,565.48v1.89c-.86,0-1.78,0-2.21.53.23,2.37,1.49,4.41,2.42,6.51s1.78,4.29,2.73,6.41a98.63,98.63,0,0,0,5-12.71c-.36-.65-1.43-.6-2.2-.84v-1.79h7.77v1.79c-2.52,0-3.39,3.06-4.2,5-2.12,5.2-4.41,11-6.41,15.76h-1.47c-2.37-5.44-5.08-11.88-7.67-17.86-.72-1.66-1.25-3-3.57-2.84v-1.89Z"/><path class="cls-1" d="M248.46,565.48c.16,1.9.22,3.91.31,5.89h-1.89c-.28-1.27-.19-2.29-.94-3-1.44-1.24-5.05.06-7.36-.42-.24,2,0,4.52-.1,6.73,3.09.15,7.17.93,6.51-2.94h1.79v8.61H245a8.78,8.78,0,0,0-.42-2.31c-.87-1.51-3.95-.56-6.09-.84v7.67c2.21.13,5,.63,6.93,0s2.36-2.45,3.15-3.89h2c-.69,2.22-1.48,4.33-2.21,6.51H231.23v-1.89c.68-.09,2,.2,2.52-.21.77-.59.42-3,.42-4.2,0-4.4.23-10.27-.32-13.55a5.67,5.67,0,0,0-2.62-.32c.07-.59-.14-1.47.1-1.89Z"/><path class="cls-1" d="M268.42,577.14a36.33,36.33,0,0,0,2.94,4.21c1.52,2.1,2.57,4.35,6.09,4.41v1.78H271c-2-2.41-3.84-5-5.78-7.66-.55-.76-1-2.3-2.41-2,.35,2.7-1.86,9.13,2.84,7.77v1.89h-10.2v-1.89c.79-.12,2.19.32,2.74-.42s.21-3,.21-4.3c0-4.22.16-9.81-.21-13.14a4.64,4.64,0,0,0-2.74-.42c.07-.59-.13-1.47.11-1.89,7.74,0,17.39-1.26,17.44,6C273.06,574.69,271,576.3,268.42,577.14Zm-.21-4.62c.58-3.21-2.23-5.3-5.47-4.31v7.36C265.38,575.73,267.82,574.67,268.21,572.52Z"/><path class="cls-1" d="M314.74,565.48c.07.32,0,1.26,0,1.89-.72.09-2-.19-2.52.32-.72.66-.42,2.9-.42,4.2,0,4.36-.16,9.94.21,13.34.55.51,1.67.44,2.73.42.07.32,0,1.26,0,1.89H304.55v-1.89c.61-.1,1.73.18,2.32-.1,1-.47.63-2.72.63-4,0-4.41.08-9.92-.11-13.56-.48-.67-1.65-.65-2.84-.63.07-.59-.13-1.47.11-1.89Z"/><path class="cls-1" d="M338.91,565.48c.11,2.06.19,4.15.31,6.2h-1.89c.13-3.11-2-3.91-5.36-3.57-.18,3.54-.1,8.8-.1,13.34,0,1.17-.29,3.43.42,4s1.84.08,2.52.21v1.89H324.62v-1.89c.63-.1,1.72.18,2.31-.1,1-.47.63-2.65.63-3.89V568.21c-3.05-.56-5.58.31-5.25,3.47h-1.89a50.63,50.63,0,0,1,.42-6.2Z"/><path class="cls-1" d="M354.35,565.48v1.89a3.7,3.7,0,0,0-2.31.42c1,3.09,3.06,5.07,4.51,7.67.86-1.15,1.64-2.43,2.42-3.67s1.93-2.38,1.79-4c-.34-.46-1.22-.39-2-.42.06-.61-.12-1.45.11-1.89h8.51v1.89c-3.55.12-4.59,3.13-6.2,5.68-1.19,1.87-2.3,3.75-3.26,5.25.11,2.31-.23,5.07.21,7,.54.44,1.67.29,2.63.31a6.69,6.69,0,0,1,.1,1.89H350.67v-1.89c3,.5,2.94-.8,2.94-3.46a20.06,20.06,0,0,0,0-3.47c-.17-.8-1.28-2-1.89-2.94s-1.23-1.84-1.89-2.84c-1.64-2.48-2.44-5.4-5.67-5.57v-1.89Z"/><path class="cls-1" d="M180.45,232.34c45.87.07,92-.14,137.72.1v87.41c0,9.75.58,20-1.79,27.42-4.53,14.24-15.68,23.78-27.41,30.88-12.22,7.39-25.88,13.09-39.61,18.7h-.1c-22.32-9.61-46.36-18.18-60.2-36.56a40.46,40.46,0,0,1-8.61-23.63Zm7.46,7.46c.07,2.55-.14,5.39.1,7.77a5.32,5.32,0,0,1,4.41-3.47c4.11-.45,5.71,2.64,6.2,6.2a12.33,12.33,0,0,1,4.94-5.88c-1.83-.38-.76-3.66-2-4.62Zm19.43,2.2c1.34.1,2.73-.24,4.2-.1,3.73.35,5.59,3.17,7.46,5.36-.28,1.36-.47,2.8-1.68,2.94-1.86.21-4.47-3.88-5.88-.74.72,1.41,3,2.9,4.62,1.79-.21,1.41-.36,3-1.47,3.26-2.16.54-3.47-2.57-4.94-2.63-1.21,0-2.29,1.59-1.15,2.52,2.94.07,4.9,1.12,6,3a44.71,44.71,0,0,0,6.1-4.21c1.11-1.06,2.11-2,1.15-3.67.55-.37.68-1.14,1-1.79.62.05.69.64.94,1.05.48,0,.94,0,1,.32.38.63-.23,1.48,0,2,1,0,.91-1.12,1.79-1.26.65-.15.55.62,1,.32.46,0,1.24-.62,1.58-.11-.37.83-1.15,1.24-1.26,2.31-.65.27-1.63.19-1.68,1a8.08,8.08,0,0,1,1.89.11c0,1.12,1.35,1,1.47,2a2.38,2.38,0,0,0-2.1.94c-1.53-.82-2.25-.24-3.26.42a13.08,13.08,0,0,0-4,4.31c2.56.38,4.18,1.7,6.62,2.2.59-.39.77-1.19,1.36-1.57.45-.09.75.27,1.05,0,.53-4.57,1.41-9.41.95-14.5-.23-2.54-1.21-5.17-1.37-7.56-8.93.07-18.14-.14-26.89.1A11.63,11.63,0,0,0,207.34,242Zm25.95-1.89c.2,2.11.38,4.24.73,6.2h30.57c.47-2,.53-4.37.85-6.51H233.39C233.27,239.82,233.28,240,233.29,240.11ZM270,239.8a.48.48,0,0,1-.1.31c-1.5,6.14-1.91,14.33-.42,20.7,1.84-.9,2.91.76,3.57,2,.52-.82.19-1.71.1-2.52,2.74-.34,2.69,2.19,2.31,4.42,1.33.91,3.68.39,4-.84.4-1.55-1-2.52-1.79-3.58a14.79,14.79,0,0,1-1.68-2.62c.3,2.39-2.14,2.46-3.78,1.78.35-.49.77-.9,1.15-1.36-.55-.94.73-1.58.74-2.52,0-.72-.62-1-.53-1.9-.79-.88-2.52-.83-2.83-2.2-.43-.31-1.37-.11-1.68-.53.5-.76.9-1.5,1.78-1.57,1.32-.1,2.18,1.41,3,1.57-1-1.24-.41-2.7-1.16-4.09,2.37-.51,3,1.39,3.58,3-.05-.6.67-.44.84-.84s.09-1.17.42-1.47c3.23,1.49-.29,4.44.21,6.3.67,2.55,3.23,4.51,5.56,5.68.62-.55,2.21-1.22,2.1-1.79a7.4,7.4,0,0,1-2,.11c1.67-.86,2.61-3.05,0-3.47-1.1-.9-1.46-2.53-1.68-4.31a3.52,3.52,0,0,1-1.26-.1,5,5,0,0,1-1.37-2.94c1.17-1.07,3.08-1.4,4.73-2,.24-.37-.5-.5-.32-1.15a12,12,0,0,1,9.14-2.84c3.46.23,8.31,2.79,8.41-1.26Zm30.15,5.25c-1.75,0-3.86-1.72-5.57-1A8.06,8.06,0,0,1,300,249c.56-3,1.88-5.48,5-5.46,2.86,0,4.65,2,5.67,4.31V239.8c-3,.07-6.23-.14-9,.1C304,241.44,303.31,245.13,300.1,245.05Zm6,7.35c.17-1.73,1.51-5,.1-5.88-1.8-1.15-2.95,2.1-3,3.47-.24,3.82,1.34,6.78,2.62,9.87,1.06,2.55,2.88,5.59,3.05,8.2.34,5.09-3.86,7-7,8.72a6.34,6.34,0,0,1,.63,2.31c1.63-.83,2.62-2.84,5.26-2.31.06,2.34-.14,5,.1,7.14a7.79,7.79,0,0,1,1.58-.11,4.72,4.72,0,0,1,.73,2.95c-1.29-.21-2.23-.74-3.46-.63-2.45.2-3.59,2.3-4.73,3.88-.14.15-.46.11-.74.11-.19.47-.19,1.14-.63,1.36-.7-.63-1.89-1.3-1.78-2.31s1.95-1.24,1.68-2.1c-2.09-.22-2.92,1.78-4.73,1.16-.36.29-.66,1.12-1.26.84-.39-1.48,0-3.09,1.15-3.36-.53-.55-.83.71-1.68.52.09-1.43-.07-2.84.84-3.26,1.54-.7,4.21,1.35,6.2.53-4.56-1-8.46-2.67-10.5-6.2-2.85.8-4.92,3.25-3.89,7.25,1.14.54,3.31,1.05,2.31,3.05-1.68-.05-2.55-.61-3.78-.53-1.77.12-2.54,1.8-3.89,2.31-.36.14-.72,0-1.05.11-.74.24-.91,1.24-1.78,1.15-.36-.78-1-1.51-.95-2.31.14-1.29,1.76-1,2.52-1.89-2.35-.45-4.37,1.23-5.88,0a3.16,3.16,0,0,1-1.58,1.05c0-1.3-.24-3.17.84-3.68,1.28-.59,3.11.66,4.63-.1-1.52.25-2.43-.69-3.26-.84-.58-.1-1.36.25-2,.1.88-4.61,5.95-1.56,9.14-1.05a34.34,34.34,0,0,1-.94-4.83c-.33-4.81,2-7.3,4.09-9.56.19-.2.63-.49.53-.84-2.11.56-3.24,2.08-4.94,3.05a7.88,7.88,0,0,0-4.41-1.37c0,1,1.21,1.76,1,2.94s-1.94,1.37-3.37,1.16c-.05-.69.48-.78.53-1.37-.75-.31-.3-1.25-.42-1.78a3.37,3.37,0,0,0-1.26-1.89c-.7-.31-1.69.12-2.42-.11s-.47-.82-1.15-.94c-.67.79-1.2,1.69-1.89,2.52a17.87,17.87,0,0,0-2,2.2c2.59-.33,1.66,2.14,1.37,4-.56,3.51-1.22,7.46-1.69,10.29,1.4.14,3.45-.36,4.21.42.41,5,.21,11.13.1,16.28-6.9-1.71-14.85-.08-19.85,2.31a31,31,0,0,0-19.75-2.31c.07-5.36-.14-11,.1-16.17.67-.91,2.76-.4,4.2-.53-.56-4.66-1.76-9.23-2-13.87a3.74,3.74,0,0,1,1.78-.42c-.61-1-2.25-1.87-2.83-3.25-1.37.46-1.86-.69-3.26-.53.76,1,.25,2.15-.21,3.26-.92-.69-2-1.23-1.89-2.94-2.41-.61-7-1.29-8.82,0-.7-.36-1.41-.7-2.11-1.05-.1.45.47.71.74,1.05a10.7,10.7,0,0,1,2.31,4.3c.66,3.26-1.84,6.7-.42,10,1.36.05,2.29.91,3.89.84,1,0,2-.81,2.83-.73a2.41,2.41,0,0,1,2,2.84c-.67.17-1.11-.63-1.47-.11-.29.82,1.35,1.35,1.68,2.42a2,2,0,0,1-.1,1.68c-.68-.1-.82-.73-1.48-.84-.63.9-2.23,0-2.94.1.84.76.07,2.45-.63,2.94-1.9-2.68-5.64-3.53-8.3-5.46-.05-4-2.12-6.43-4.2-8.3-.24-.22-.52-.66-.84-.52-1.16,3.38-3,5.68-6.09,7-1.12.5-2.47.81-3.05,1.9,1.71.5,4,.39,5.36,1.26.29.83,1.47,2.2.52,3.25a6.83,6.83,0,0,0-2.94-.84c-.12.66.49,1.57-.21,2.1-.57,0-.89-.71-1.47-.84-.27-.06-.73.14-1,.11-2.09-.2-4.11-1.94-6-1.68-1.07.14-1.76,1.29-2.83.31,0-.72.5-.86.73-1.47,1-2.58-.43-6.87-.21-9.24.3-3.09,3.67-.45,5.57-.32.23-1.24.82-2.12,1.05-3.36-3.5-1-6.53-3.23-6.51-6.93,0-2.41,2.08-5.42,3-7.67a26.14,26.14,0,0,0,2.42-8.3c.13-1.82-.13-3.64-1-4.31-.75-.54-2.49-.55-2.94.11-1.18,1.72,1,3.14.63,4.83-.43,2-4.24,2.44-4.62-.21v43c9.35,1.5,18.75,2.95,28.05,4.51.06,2.31-.14,4.9.1,7,7.82-.32,13.15-3.95,21.43-3.57a31.23,31.23,0,0,1,9.14,2,11.74,11.74,0,0,0,2.84.94,12.55,12.55,0,0,0,2.62-1,30.59,30.59,0,0,1,9.14-1.89c8.6-.38,13.41,3.26,21.33,3.57.24-2.14,0-4.73.1-7,9.41-1.41,18.6-3,28-4.41-.07-14.25.14-28.78-.1-42.86-.4,1.33-1.39,2.65-1.37,4.41a12.31,12.31,0,0,0,1.05,3.57C307.71,259,305.66,256.73,306.09,252.4Zm-24.16-2.31c2.26,2.87,3.61-2.33,6.09-2.41C286.15,245.69,283.54,249.46,281.93,250.09Zm10.4,6.52c1.15-.15,2.82-2.55,3.15-3.89,1.12-4.5-5.71-3.13-7.14-1.05-.84,1.22-.64,3.08-.84,4.83C288.83,255.23,291.1,256.76,292.33,256.61Zm-47.49-2.84c.34,1.1,2.55,1,4,1,.1.32-.23,1.07.21,1.05.74.49.85-.54.94-1.05,2.69.5,5.17-1.34,2.94-3.15,0,.19-.35.06-.42.21-.34.59.37.93.21,1.68a4.45,4.45,0,0,1-2.83.31,6.29,6.29,0,0,0-.11-1.78,1.18,1.18,0,0,0-.94,0V254c-1.16,0-2.34,0-2.94-.53-.07-.7.54-1,.31-1.57C245.21,251.27,244.61,253,244.84,253.77Zm10.61,9.77c-.46-1.79.57-4.87-.21-6.62a3.1,3.1,0,0,0-3.57-1.26c-.61.17-.83.82-1.36,1-1.74.74-2.24-.59-3.26-.94s-2.81-.19-3.47.84c-1,1.53-.11,3.93-.42,7.14-.21.66-1.21.54-1.26,1.37,1.2.61,2.09-.35,2.31-1.37.6-2.65-1.38-8.08,2.21-7.25.46.11.64.67,1.16.95s1.29,0,1.26.73c-.85.49-3.17-.51-3.36.63.33,1,2.7,0,3.36.63v.32c-.85.48-3.17-.51-3.36.63.7.83,3.34-.26,3.78.84.54,0,.43-.55.94-.53.91-.24,2.86.55,2.94-.52-.45-.81-2.64.12-3.25-.53v-.31c.83-.47,3.07.48,3.25-.63-.28-1-2.64.06-3.25-.63,0-.72.69-.32,1.26-.63s.62-.84,1-.95a2.54,2.54,0,0,1,2,.53c.72,2.82-.95,8.58,2.42,8.4C256.9,264.25,255.69,264.43,255.45,263.54ZM298,261.65c-.58,1.26-2.63,3.79-2.42,5.36.11.8,1.14,1.3,1.69,1.89s1,1.69,1.68,1.89c2.37.71,4.8-2.16,4.51-4.73-.15-1.38-1.4-3.16-2-4.83-.67-1.91-1-4.24-1.47-5.57A32.38,32.38,0,0,1,298,261.65Zm-101.58.73c-.72,1.77-2.41,4-2.1,5.68.35,1.92,2.73,2.4,4.51,3.15a14.08,14.08,0,0,0,1.89-2c.63-.63,1.68-1.29,1.79-2.2.17-1.47-1.47-3.62-2.21-5.26a52.12,52.12,0,0,1-2.1-5.56A27,27,0,0,1,196.42,262.38Zm53.36-.84c-1.81,0-4.36-.46-4.3.74.74.45,2.27.1,3.36.21-.07.39.13,1.05-.11,1.26-1.14.3-3.61-.74-3.46.84,1.81.17,4.54.13,6.51.11.6,0,1.61.26,1.68-.53-.48-.85-2.43-.23-3.57-.42.06-.39-.14-1.05.1-1.26,1-.23,3,.52,3.15-.53C252.73,261.26,251.21,261.54,249.78,261.54Zm19.65,2.63c.87-.14,1.47.56,2,.42a3,3,0,0,1-1.57-2.1h-.32C269.61,263.17,269.38,263.52,269.43,264.17Zm-41,.74a1.72,1.72,0,0,0,.94.21C229.61,264,228.58,264.05,228.46,264.91Zm13.76,7.87c-.29,4.23-.65,8.39-.95,12.61h5.15c-.47-4.26-.78-8.67-1.26-12.92C244.25,272.64,242.62,272.1,242.22,272.78Zm11.45-.31c-.8,4-.94,8.59-1.37,12.92h5.05c-.23-4.39-.66-8.59-1-12.92Zm-12.19,18.7v.94c.54,0,.92-.69,1.26-.52v3.47c.36,0,.86.08,1-.11v-5C242.4,289.7,242.55,291.05,241.48,291.17Zm6,4c1.93-.36,2-4.86.11-5.25-3.3-.69-2.09,4.94.21,3.25,0,.65-.19,1.08-.74,1.16-.33-.05-.43-.34-.52-.63a2.17,2.17,0,0,1-.95.1C246,295.4,246.78,295.29,247.47,295.16Zm3.05-.32c2.95,2.39,4.13-5.69.63-4.83C249.45,290.43,249.62,294.12,250.52,294.84Zm6-4.93a1.77,1.77,0,0,0-2.32,1.57,3.72,3.72,0,0,1,1.05.11.67.67,0,0,1,1.27-.42c.4,1.28-2.76,2.53-2.42,3.89h3.47v-.95h-1.89C256.79,293.59,258.77,290.42,256.51,289.91Zm-68.6,9.56c.39,12.85-.53,25.55,0,37.61.49,11.19,6.26,19.05,12.71,25,12.09,11.16,28.61,18.6,45.38,25.32,1.09.43,2.68,1.37,3.36,1.36s2.19-.93,3.26-1.36c16.84-6.88,33.48-14.12,45.49-25.32,6.1-5.69,12.33-13.94,12.6-25.11.29-12.17-.22-24.7,0-37.71-8.16,1.26-16.25,2.58-24.37,3.88v5.68c.88.3,2.48-.1,3.36.21-.07,11.31.14,22.9-.1,34-2-.05-4.78.12-6.31-.1C275.7,350.87,265,355.8,254,360.5c-1.34.58-3.54,2-4.72,2a10.09,10.09,0,0,1-2.31-.95c-5.54-2.34-11.1-4.85-16.08-7.46a68.26,68.26,0,0,1-12.18-7.87c-1.09-.93-2.51-3-3.47-3.26-1.76-.41-4.81.62-6.3,0v-34h3.36V303q-12.22-1.86-24.27-3.89C187.89,299.17,187.9,299.32,187.91,299.47Zm79,6.09c-6.76-1-12.66.72-17.65,2.84-4.17-1.73-8.66-3.42-14.29-3.16-7.51.36-13,4.25-20.8,3.37v29.2c6.22.85,11.75-1,17.65-1.78a36.66,36.66,0,0,1,13.66.42c1.17.28,2.75,1.15,3.88,1.15s2.63-.87,3.78-1.15a30.59,30.59,0,0,1,4.31-.74c9.77-1,17.71,3,27,2.21V308.61C277.88,309.51,272.68,306.44,266.91,305.56ZM210.7,311c.07,9.42-.14,19.12.11,28.37h1.47c.24-9.35,0-19.16.1-28.68h-1.57C210.69,310.73,210.69,310.87,210.7,311Zm75.54,0c.07,9.42-.14,19.12.1,28.37h1.58V310.71h-1.58C286.22,310.73,286.23,310.87,286.24,311Zm-37,28.58c-6.8-3.47-18.28-2.28-25.74-.21H244a8,8,0,0,0,.11,1.68h10.5c.07-.53-.13-1.33.11-1.68H275.1C267.59,337.25,256.15,336.22,249.26,339.6Zm-28.47,3.46c6.58,5.53,15.84,10.08,24.58,13.87,1.08.47,3.12,1.59,4,1.58s2.78-1.09,3.89-1.58c1.38-.61,2.72-1.31,3.78-1.79,7.2-3.22,14.74-6.73,20.28-11.45.12-.11.5-.37.42-.63H256.3c-.19.42.73,1.13.42,1.68H241.9c-.08-.77.68-1.18.42-1.78C235.9,343.2,227,343,220.79,343.06Zm25.74-52c-.06.87-.06,1.67.94,1.47C248.26,291.88,247.38,290.05,246.53,291.06Zm5.14,3.26c.73-.67.55-2.52.21-3.47C250.58,290.43,250.57,294.15,251.67,294.32Z"/><path class="cls-1" d="M202.82,305.77h.63c-.18.94.26,1.7,0,2.52s-2.32,2.13-2.94,2.63a24.05,24.05,0,0,0-3,2.52,50.76,50.76,0,0,0,5.14-.11c.37-.15,0-1.07.42-1.15.68-.12.42,1,.42,1.68s.23,1.76-.31,1.78-.15-.82-.42-1c-2.45-.46-5.72-.1-8.51-.22,0-.88.95-1.24,1.47-1.68,1.64-1.35,3.36-2.8,5-4.2-1.18,0-3.91,0-5.46,0-.36.13-.06.92-.31,1.16h-.42c-.42-.71-.22-2.59-.11-3.47h.42c.45,0,0,.93.32,1.16C197.41,307,203.08,308.78,202.82,305.77Z"/><path class="cls-1" d="M295.16,306.93h.32c.52,0,.21.76.52.94,1.14,1.31,2.93,2,4.31,3.05h3.05c.36-.13.06-.92.31-1.16h.63v4.1h-.52c-.43,0-.12-.66-.21-.95-.58-.5-1.92-.25-2.94-.31-1.54.95-3,2-4.52,2.94-.33.26-.07,1.12-.74,1-.37-.39-.21-1.36-.21-2.21s-.24-1.81.32-2,.14.91.52,1.05a13,13,0,0,0,3.26-2,13,13,0,0,0-3.15-1.89c-.49,0-.07,1-.63.95C294.78,309.9,295.35,308,295.16,306.93Z"/><path class="cls-1" d="M194.42,315h.42c.39,0,.18.66.42.85,2.61,1.56,6,2.31,8.51,4-2.49,1.64-5.83,2.43-8.51,3.88-.26.27,0,1.08-.63.95a7.34,7.34,0,0,1,0-3.89c.71-.18.27.78.63.95a7.4,7.4,0,0,0,2-.74v-3a6.66,6.66,0,0,0-1.89-.74c-.53,0,0,1-.63.95-.71-.35-.14-2-.32-2.84Zm3.78,5.57a9.53,9.53,0,0,0,2.63-1.15c-.92-.31-1.67-.78-2.63-1.05Z"/><path class="cls-1" d="M297.58,317.33c0,.9-1,.52-1.36,1.15-.25.48,0,.91-.11,1.79,2.38-.07,5,.13,7.25-.11.4-.09,0-.94.31-1.15h.42c.42.95.22,3.07.11,4.2h-.42c-.46,0,0-.93-.32-1.16-2.21-.24-4.86,0-7.24-.1a3.36,3.36,0,0,0-.11,1.47c.26.86,1.37.48,1.47,1.36-.24.26-1.85.12-2.42,0,0-2,0-5.44,0-7.45C295.93,317.35,296.89,317,297.58,317.33Z"/><path class="cls-1" d="M203.56,325.1c-.2.92.27,1.69,0,2.52s-2.42,2.12-3.05,2.63c-1.2,1-2.18,1.73-3,2.52a48,48,0,0,0,5.14-.11c.49-.1,0-1.21.63-1.15s.32,1,.32,1.68.17,1.56-.21,1.78c-.76.13-.3-1-.74-1.15-2.76-.07-5.81.14-8.4-.11.1-.8.92-1.22,1.47-1.68,1.64-1.33,3.43-2.69,5-4.2h-5.25c-.62,0-.11,1.16-.73,1.16s-.32-1.13-.32-1.79-.23-1.64.32-1.68.11,1,.52,1.16c2.07.24,4.58,0,6.83.1C203,326.65,202.38,325,203.56,325.1Z"/><path class="cls-1" d="M295.06,325.41h.63c.2.26,0,.88.21,1.16a51.52,51.52,0,0,0,7.35,0c.54,0,.06-1.07.53-1.16.72,0,.42,1.32.42,2.11s.24,1.94-.32,2.1-.11-1-.52-1.16a51.66,51.66,0,0,0-7.36,0c-.39.09,0,.94-.31,1.16h-.42C294.78,328.63,295.2,326.75,295.06,325.41Z"/><path class="cls-1" d="M304,336.55c0,.39.76.08.52.74-.7.41-2.58.21-3.46.1-.1-.88.9-.69,1.36-.94.92-.5,2-3.59-.1-3.58s-1.93,5.43-5.57,4.63c-1.52-.34-2.35-2.59-1.37-4.63.09-.46-.63-.14-.42-.73a5.87,5.87,0,0,1,3.47,0c-.16.73-.84.47-1.36.73-.85.43-2,3.21-.11,3.26s2.35-6.27,6-4.62C304.5,332.22,304.85,334.51,304,336.55Z"/><path class="cls-1" d="M205.77,344.43c-.53,2.59-1.23,5-1.79,7.56a20.33,20.33,0,0,0,4.1-3.15c-.08-.59-.82-.84-.21-1.26a7.35,7.35,0,0,1,2.2,2.84c-.65.55-.69-.41-1.26-.53-2.48,1.48-4.45,3.47-6.93,4.94-.2-1.36.37-2.86.73-4.31s.73-2.92,1-4.3a50.22,50.22,0,0,0-4.41,3.36c0,.69.86.91.21,1.36a7.25,7.25,0,0,1-2.2-2.83c.65-.55.69.4,1.26.52,2-1.18,3.63-2.74,5.56-4,.39-1.09-.61-1.76-.21-2.31a12.75,12.75,0,0,0-3.78,1.05,11.05,11.05,0,0,0-3.46,1.47c0,.45.27.57.21,1-.22,0-.28.07-.42.11a14.47,14.47,0,0,1-1.47-4c.21.05.27-.07.42-.1.47.08.25.86.73.94a41.59,41.59,0,0,0,7-2.41c-.29-.91.15-1.28-.32-1.89-2.54,0-9.21,2.35-8.82-1.68a1.22,1.22,0,0,1,1.58-1.16c.89.67.07,1.62-.53,2,2.23.26,5.08-.67,7.46-.95a1.94,1.94,0,0,0,0-1.26c.15-.06.54.12.52-.1C204,338.62,203.88,342.37,205.77,344.43Z"/><path class="cls-1" d="M299.05,341.49a12.76,12.76,0,0,0,3.78-1.26c.6-.42.67-1.34,1.47-1.16a11.89,11.89,0,0,1-.73,2.63c-.79.36-1.77.53-2.63.84s-1.77.5-2.2,1.15c.61.69,1.93.67,2.83,1.05.69,0,.37-1,.95-1.05,0,.09,0,.1.1.11.44.33,0,1.32-.21,2s-.54,1.45-.73,2c-.22,0-.28-.07-.42-.1-.44,0,.2-.58,0-1.05-2-1.09-4.65-1.59-7-2.32-.55.09-.29,1-.84,1.06,0-.09,0-.1-.11-.11-.47-.2-.1-.89,0-1.26a16.09,16.09,0,0,1,1.47-4.1C295.91,338.29,299.22,338.56,299.05,341.49Zm-4.31,1.15a22.44,22.44,0,0,0,3.16.95C299.39,340.69,294.65,339.63,294.74,342.64Z"/><path class="cls-1" d="M292,345.9c.73.35,1.22,1,2,1.26-.25,1-1,.11-1.58.21-1.06.18-1.26,1.71-2.1,2.31a8.47,8.47,0,0,0,2.31,1.89c.34-.66,1.37-1.19,1.37-2,0-.63-.83-.76-.42-1.37a7.89,7.89,0,0,1,2.84,2c-.13.8-.82.08-1.27,0-.83.39-1.14,1.3-1.78,1.89a16.14,16.14,0,0,0,2.62,2c.61-.67,1.76-1.43,1.9-2.52.11-.87-.83-1.6-.21-2.31a7.09,7.09,0,0,1,1.57,2.21c-1.45,1.88-2.63,4-4.41,5.57-.62-.43.17-.65.21-1.26a15.27,15.27,0,0,0-2.84-2.42c-.77-.59-2.38-2.13-3-2.1s-.6.83-1.16.63c-.38-.55.34-1.08.63-1.47C289.71,349,291,347.43,292,345.9Z"/><path class="cls-1" d="M214.17,354.09c.44-.18.48-.4.84,0-.14.93-1.22,1.79-1.68,2.74-1-.37-.1-1.12-.11-1.9a2.79,2.79,0,0,0-2.41-2.73c-3.82-.46-6.67,6.25-2.21,7.46.44-.69,2.08-1.64,2.1-2.52,0-.59-.83-.6-.42-1.16.5-.26,1.18.52,1.68.95s1.31,1,1.37,1.47c-.4.55-.5,0-1.05-.1a23.29,23.29,0,0,0-2.52,2.73c-2.65-.74-4.8-2.14-5-4.73C204.17,350.59,212.56,349.29,214.17,354.09Z"/><path class="cls-1" d="M287.18,352.1c-.86,1.29.26,3.64.84,5.57.49,1.6,1.14,3.06,1.05,4.3-2.84-.9-5.55-2.85-8.4-4.09-.42.07-.65.33-1.05.42-.73-.54.61-1.26,1.26-1.79s1.35-1.34,1.78-.95-.39.54-.42.95c1.42,1.31,3.45,2,5.26,2.94-.5-1.92-1.08-3.76-1.68-5.57-.74-.08-1,.58-1.37,0,.44-1,1.58-1.29,2.21-2.1C287,351.73,286.93,352.07,287.18,352.1Z"/><path class="cls-1" d="M224.89,361.13c-.46.7-.64,1.68-1.37,2.1,0-.1-.13-.08-.21-.1a2.16,2.16,0,0,0-1.37-2.73,48.64,48.64,0,0,0-3.78,6.3c0,.52.73.32.74.84a.46.46,0,0,0-.21.42,18.38,18.38,0,0,1-3.57-2.31.31.31,0,0,0,.21-.32c.36-.26.52.42,1,.32,1.68-1.71,2.65-4.14,4.09-6.09-.6-.72-2.33-1.32-2.73,0a2.08,2.08,0,0,1-.94-.84,19.64,19.64,0,0,0,1.68-1.47C220.77,358.38,222.74,359.84,224.89,361.13Z"/><path class="cls-1" d="M278.57,358.72c-.25.31-.66.46-.84.84a39.58,39.58,0,0,0,4.2,6.19,1.4,1.4,0,0,0,.94-.52c.2.12.23.41.42.52a16.71,16.71,0,0,1-3.57,2.32.29.29,0,0,0-.21-.32c.07-.49.72-.41.74-.94a34.24,34.24,0,0,0-4.1-6.1c-.65-.18-.79.56-1.16.32-.09-.09-.06-.29-.21-.32.86-1,2.24-1.54,3.26-2.41C278.4,358.25,278.36,358.61,278.57,358.72Z"/><path class="cls-1" d="M273.1,361.66c0,.52-.69.42-.84.84a76.75,76.75,0,0,0,4,7.46c-.62.53-1.48-.07-2.11-.32-2-.79-4.29-1.73-6.3-2.52a30.64,30.64,0,0,0,2.84,4.83c.56.13.76-.5,1.15-.21,0,.12,0,.19.11.21-.7.95-2,1.3-3.05,1.89a.46.46,0,0,0-.21-.42c.06-.5.74-.38.84-.84-.84-2.24-2.21-3.95-3.15-6.09-.76-.5-1.61.31-2.1-.1,0-.83,1.53-1.06,2.21-1.58,2.45.9,4.76,2,7.24,2.84a27.8,27.8,0,0,0-2.62-4.52,1.58,1.58,0,0,0-.95.42c-.23-.08-.13-.5-.42-.53.87-.63,2-1,2.84-1.68C273,361.21,272.83,361.65,273.1,361.66Z"/><path class="cls-1" d="M225.2,361.55c2.27,1,4.18,2.27,6.41,3.26a13.28,13.28,0,0,1-1.05,2.1c-1-.11-.19-.74-.32-1.26-.28-1.14-1.81-1.22-2.73-1.89a22.16,22.16,0,0,0-1.47,2.52,9.45,9.45,0,0,0,2.21,1.16c.65-.15.69-1.2,1.47-.63-.45,1.13-1.14,2-1.58,3.15-.2,0-.26-.23-.52-.21-.2-.27.19-.66.21-1.05-.4-.83-1.37-1.09-2.21-1.47a13.75,13.75,0,0,0-1.47,2.83c.76.5,1.63,1.42,2.63,1.47s1.53-1.08,2.41-.63a6.1,6.1,0,0,1-2.1,2c-1.91-1.28-4.28-2.09-6.09-3.47a.28.28,0,0,0,.21-.31c.32-.25.52.33,1,.21.82-.5,1.16-1.8,1.89-3.15s2.63-3.41.84-4.21A.45.45,0,0,0,225.2,361.55Z"/><path class="cls-1" d="M238.33,368.38c.48.05.58-.74.95-.21.18.68-.74,2.62-1.05,3.15-.75-.23-.34-1.51-.53-2.1a2.55,2.55,0,0,0-3.36-1.57c-2.73.81-4.36,7.38.1,7.45,1,0,1.81-1,2.53-.52.11.56-.64.69-.95.84a4.31,4.31,0,0,1-6.2-4C229.93,367,235.61,364.75,238.33,368.38Z"/><path class="cls-1" d="M263.23,367.65c-.09.44-.78.27-.84.73.08,2.43,2.73,4.28,2.2,7-.29,1.56-2.37,2.92-4.41,2.73-3.2-.3-2.85-4.93-4.83-6.72-.51-.16-.77.49-1,.21-.45-.69.87-1.06,1.58-1.37s1.86-1,2.2-.52-.79.44-.84.94c.92,1.44,1.57,6.18,3.78,6.31a2.55,2.55,0,0,0,2.63-2.11c.1-1.08-.74-2.2-1.16-3.15s-.7-2.19-1.47-2.83c-.47-.12-.83.42-1,.21-.61-1,2.17-1.23,2.73-1.89C263.1,367.14,263.11,367.45,263.23,367.65Z"/><path class="cls-1" d="M240.33,368.91c1.29.53,2.62,1,3.88,1.57a2.91,2.91,0,0,0-.21.63,6.09,6.09,0,0,0-.94-.31c-.9.53-.95,1.92-1.47,2.83a23.44,23.44,0,0,0,3.25,1.47c.45-.88.79-1.88,1.16-2.83,0-.66-.95-.38-.95-1,.46-.56,1.27.17,1.9.42a10.09,10.09,0,0,1,2.1.84c0,.25-.19.23-.11.52-.51.09-.54-.3-1.05-.21-1.34,1.88-2,4.47-2.94,6.73.05.54.67.52,1,.84-.22.94-1.29.14-1.9-.11s-1.58-.66-2.2-.84a2.59,2.59,0,0,0,.21-.63c.46,0,.58.33,1.15.21a19.32,19.32,0,0,0,1.37-2.94c-.93-.64-2.24-.91-3.26-1.47-.53.87-.81,2-1.26,2.94.05.68,1.31.5.84,1.37a15,15,0,0,1-2.1-.74c-.61-.24-1.52-.4-1.78-1,.1,0,.08-.13.1-.21.34-.26.58.27,1.16.11a27.2,27.2,0,0,0,2.2-5.05c.43-1.07,1.17-2.15-.31-2.41C240.09,369.23,240.36,369.21,240.33,368.91Z"/><path class="cls-1" d="M224.46,313.75a14.29,14.29,0,0,0,.64,2.32c.27.24.94.1,1.15.42-1.09,1.11-2.75,1.66-2.94,3.67,1.41-.62,1.79-2.27,3.26-2.83a4.18,4.18,0,0,1,.84.84c0,.82-.41,1.55-.53,2.62-.19,1.81.64,3.66-.84,4.21-.46-.33-.73-1.24-1.58-.85-.11.4.4.17.32.53-.35.35-.49.91-1.05,1.05a1.35,1.35,0,0,0-1-1c-.08-.67.88-.31.63-1.15,0-.23-.37-.05-.53-.11a1,1,0,0,0-.31-.94c-.73.4-1.41.8-1.37,1.57s1.25,1.18.53,1.9c-1.52-.12-1.84-1.8-1.58-3.37.45-.1.19.52.53.53,1.18-.4,1.27-1.88,2.1-2.63-.22-.62-1.37-.31-1.47-1.05a4.72,4.72,0,0,0,2.41-2c.19-1.38-.38-2.88.11-3.89A1.77,1.77,0,0,1,224.46,313.75Zm.53,5.78a2.27,2.27,0,0,1,.32.74c-.14.64-.89.93-.95,1.57s.64,1,.42,1.68c.34,0,.44.19.84.11.58-1.18.47-3.39.21-4.83-.13,0-.14-.14-.31-.11C225.51,319.14,225,319.08,225,319.53Zm-1.58,2.73a1.38,1.38,0,0,0,.53-1.78C223.67,321,223.14,321.56,223.41,322.26Z"/><path class="cls-1" d="M264.07,314.8c2.14.21,1.63,2.48,1.37,4.42.71.17,1-.9,1.78-1.05.1.18.39.17.42.42-.53.72-1.64.87-2.31,1.47,0,2.26-1.36,3.19-2.94,3.88.16-1.21,2.12-1.51,2-3.36-1.31.18-2.42,2-4.51,1.37.26-.82,1.46-.82,2.31-1.16s1.67-.72,2.41-1.05A8,8,0,0,0,264.07,314.8Z"/><path class="cls-1" d="M235.6,315.33c0,.31.26.76.11.95-.88.05-1.75-.3-1.58-.95C234.65,315.13,235,315.38,235.6,315.33Z"/><path class="cls-1" d="M237.39,316.28c-.4.78-2.14,1.26-3.16,1.89-.83.51-1.48,1.62-2.52.52,1.76-.77,3.76-1.29,4.94-2.62C237,316.05,237.28,316.06,237.39,316.28Z"/><path class="cls-1" d="M246.21,318.69c-.27,1.38-1.26,2-1.79,3.15.39.32.66-.39,1.27-.21,0,.84-1.13,1-1.79,1.37-.92.53-1.55,1.19-3.15,1.05-.25-.28-.66-.4-.74-.84,3-.1,3.86-2.3,5-4.2-.7-.11-3.15.83-2.73-.74C243.86,318.81,245.57,317.5,246.21,318.69Z"/><path class="cls-1" d="M237,318.69a4.75,4.75,0,0,1-1.05,1.05c-.12.39.26.3.21.63l-1.06.53c.11,1.12.62,3.26-.31,3.88-.51-.33-.45-1.22-1.16-1.36-1,.14-.5,1.8-1.89,1.58a3,3,0,0,1-.31-1.48,13.14,13.14,0,0,0,2.1-.84c.41.05.45.47.84.53.29-.72-.31-1.91.63-2.1-.41-.89.38-1.33.63-1.89-.4-.27-.92,1.17-1.47.42C235,319.27,235.89,317.83,237,318.69Z"/><path class="cls-1" d="M234.34,321.11c-.21,0-.21.28-.42.31A1.41,1.41,0,0,1,233,320C233.65,319.45,234.47,320.15,234.34,321.11Z"/><path class="cls-1" d="M236,321.63c1.09,0,1.41,2.86,0,2.42A5.81,5.81,0,0,1,236,321.63Z"/><path class="cls-1" d="M266.91,322.16a1.82,1.82,0,0,1,1.36,1.89c-.25.13-.39.38-.84.31C267.05,323.84,267.22,322.76,266.91,322.16Z"/><path class="cls-1" d="M256.09,324.05c-.36-.42-1-.54-1.06-1.26C255.81,322.31,257,323.54,256.09,324.05Z"/><path class="cls-1" d="M275.41,312.7c.44,0,.88,0,1.06.21,0,.13,0,.19.1.21-.08,1.18-1.11,1.42-1.37,2.42a1.09,1.09,0,0,0,.63.32c.87-.55,1.56-1.95,2.84-1.16,0,1.71-1.5,2-1.78,3.47,1.26,1-.64,1.95-1.16,2.52.25.2,1.24-.25,1.47.21a1.29,1.29,0,0,1-1.37,1.36c.19,1,.46,2.85-.1,3.68a7.75,7.75,0,0,1-1.89-.84c.16-.4.76-.36,1.26-.42a8.77,8.77,0,0,0-.11-2.1c-.85.28-1.65,1.67-2.83.94.81-.69,2.24-.77,2.73-1.78-.27-1.42,1-1.34,1.16-2.31-.48-.06-1.23,1.08-2,.73a4.15,4.15,0,0,1,2.21-1.68,8.61,8.61,0,0,0,1.15-2.94c-.59-.07-.58.47-1.05.53a1.64,1.64,0,0,1-1.05,2.41c0-.3.19-.44.21-.73-.51.15-.54.79-1,.94-.29-.31.23-.47.1-.94-.66.21-.74,1-1.26,1.36-.35-.56-1.2-1.16-.94-2,.75-.16.71.47,1.05.73.15-.89-.92-1.46-.84-2.62.57,0,.75.36,1.05.63C274.93,315.51,275.3,314.23,275.41,312.7Zm-1.05,3.89c.19.09.27.29.63.21C275.13,316.36,274.41,316.23,274.36,316.59Zm1.37.84c0-.2.3-.19.21-.52-.13,0-.15-.14-.32-.11C275.69,317,275.5,317.42,275.73,317.43Z"/><path class="cls-1" d="M256.19,314.28c.11,1.33-.54,1.91-.52,3.15.62-.34,1.5-.24,1.47.63-1.68-.13-3,.08-3.37,1.26.65-.08.75-.73,1.68-.52.25.56-.37.51-.52.94-.28.82.37,2-.53,2.42,0,.86.29,1.76-.1,2.41-.53,0-.69-.36-1.05-.52a3.61,3.61,0,0,0-1.58,1.89c-.67.15-.39-.85-.31-1.16.73-.67,2-.74,2.2-2-.16-.24-.63.48-.94.1-.06-.75.94-.46.73-1.36-.12-.32-.4.15-.52-.11.61-.71,1.76-.9,1.89-2.1-.7.14-.77.92-1.68.84v-.63c-.83.15-1.08.88-2.21.74-.2-.19-.25-.52-.42-.74,1.16-.34,2.83-.18,3.47-1a2.88,2.88,0,0,1-.32-.84c-.43,0-.57.5-1.05.21v-.73c1.17.18,1.05-.92,1.05-1.89.45,0,.54.3.74.52,0,.56-.31.74-.21,1.37.36-.14.38-.6.42-1.05.19,0,.22.12.42.1C255.3,315.49,255,314.15,256.19,314.28Zm-1.79,3.26a.64.64,0,0,1-.1.52c1,.28,1.47-1.93,1-2.73C255.05,316,255.32,317.8,254.4,317.54Z"/></g></svg>